<?xml version="1.0" encoding="UTF-8" standalone="no"?><!DOCTYPE svg PUBLIC "-//W3C//DTD SVG 1.1//EN" "http://www.w3.org/Graphics/SVG/1.1/DTD/svg11.dtd"><!-- Generated by graphviz version 2.40.1 (20161225.0304)
 --><!-- Title: classgraph Pages: 1 --><svg xmlns="http://www.w3.org/2000/svg" xmlns:xlink="http://www.w3.org/1999/xlink" width="2160pt" height="54pt" viewBox="0.00 0.00 2160.00 54.05">
<g id="graph0" class="graph" transform="scale(.2079 .2079) rotate(0) translate(4 256)">
<title>classgraph</title>
<polygon fill="#ffffff" stroke="transparent" points="-4,4 -4,-256 10386.3655,-256 10386.3655,4 -4,4"/>
<!-- za_ac_tut_entities_User -->
<g id="node1" class="node">
<title>za_ac_tut_entities_User</title>
<polygon fill="none" stroke="#000000" points="1303.0761,-108 1167.0699,-108 1167.0699,-72 1303.0761,-72 1303.0761,-108"/>
<text text-anchor="middle" x="1235.073" y="-85.8" font-family="Times,serif" font-size="14.00" fill="#000000">za.ac.tut.entities.User</text>
</g>
<!-- za_ac_tut_entities_Account -->
<g id="node2" class="node">
<title>za_ac_tut_entities_Account</title>
<polygon fill="none" stroke="#000000" points="593.576,-36 436.57,-36 436.57,0 593.576,0 593.576,-36"/>
<text text-anchor="middle" x="515.073" y="-13.8" font-family="Times,serif" font-size="14.00" fill="#000000">za.ac.tut.entities.Account</text>
</g>
<!-- za_ac_tut_entities_User&#45;&gt;za_ac_tut_entities_Account -->
<g id="edge1" class="edge">
<title>za_ac_tut_entities_User-&gt;za_ac_tut_entities_Account</title>
<path fill="none" stroke="#000000" d="M1167.0129,-83.194C1036.1572,-70.1084 749.5637,-41.4491 603.8823,-26.8809"/>
<polygon fill="#000000" stroke="#000000" points="603.9395,-23.3693 593.6409,-25.8568 603.2429,-30.3345 603.9395,-23.3693"/>
</g>
<!-- za_ac_tut_business_AdminFacade -->
<g id="node3" class="node">
<title>za_ac_tut_business_AdminFacade</title>
<polygon fill="none" stroke="#000000" points="2873.6808,-252 2678.4652,-252 2678.4652,-216 2873.6808,-216 2873.6808,-252"/>
<text text-anchor="middle" x="2776.073" y="-229.8" font-family="Times,serif" font-size="14.00" fill="#000000">za.ac.tut.business.AdminFacade</text>
</g>
<!-- za_ac_tut_entities_Admin -->
<g id="node4" class="node">
<title>za_ac_tut_entities_Admin</title>
<polygon fill="none" stroke="#000000" points="2850.5366,-180 2701.6094,-180 2701.6094,-144 2850.5366,-144 2850.5366,-180"/>
<text text-anchor="middle" x="2776.073" y="-157.8" font-family="Times,serif" font-size="14.00" fill="#000000">za.ac.tut.entities.Admin</text>
</g>
<!-- za_ac_tut_business_AdminFacade&#45;&gt;za_ac_tut_entities_Admin -->
<g id="edge2" class="edge">
<title>za_ac_tut_business_AdminFacade-&gt;za_ac_tut_entities_Admin</title>
<path fill="none" stroke="#000000" d="M2776.073,-215.8314C2776.073,-208.131 2776.073,-198.9743 2776.073,-190.4166"/>
<polygon fill="#000000" stroke="#000000" points="2779.5731,-190.4132 2776.073,-180.4133 2772.5731,-190.4133 2779.5731,-190.4132"/>
</g>
<!-- za_ac_tut_business_UserFacade -->
<g id="node5" class="node">
<title>za_ac_tut_business_UserFacade</title>
<polygon fill="none" stroke="#000000" points="1119.7191,-180 936.4269,-180 936.4269,-144 1119.7191,-144 1119.7191,-180"/>
<text text-anchor="middle" x="1028.073" y="-157.8" font-family="Times,serif" font-size="14.00" fill="#000000">za.ac.tut.business.UserFacade</text>
</g>
<!-- za_ac_tut_business_UserFacade&#45;&gt;za_ac_tut_entities_User -->
<g id="edge3" class="edge">
<title>za_ac_tut_business_UserFacade-&gt;za_ac_tut_entities_User</title>
<path fill="none" stroke="#000000" d="M1080.0407,-143.9243C1108.4618,-134.0387 1143.8432,-121.7321 1173.6266,-111.3726"/>
<polygon fill="#000000" stroke="#000000" points="1174.7888,-114.6742 1183.084,-108.0831 1172.4891,-108.0627 1174.7888,-114.6742"/>
</g>
<!-- za_ac_tut_business_SendEmail -->
<g id="node6" class="node">
<title>za_ac_tut_business_SendEmail</title>
<polygon fill="none" stroke="#000000" points="880.0885,-180 702.0575,-180 702.0575,-144 880.0885,-144 880.0885,-180"/>
<text text-anchor="middle" x="791.073" y="-157.8" font-family="Times,serif" font-size="14.00" fill="#000000">za.ac.tut.business.SendEmail</text>
</g>
<!-- za_ac_tut_business_SendEmail&#45;&gt;za_ac_tut_entities_User -->
<g id="edge4" class="edge">
<title>za_ac_tut_business_SendEmail-&gt;za_ac_tut_entities_User</title>
<path fill="none" stroke="#000000" d="M880.1054,-146.3498C884.8285,-145.548 889.5069,-144.7605 894.073,-144 984.0973,-129.0068 1087.6638,-112.7459 1156.817,-102.0293"/>
<polygon fill="#000000" stroke="#000000" points="1157.4178,-105.478 1166.7646,-100.4892 1156.3468,-98.5605 1157.4178,-105.478"/>
</g>
<!-- za_ac_tut_business_AccountFacade -->
<g id="node7" class="node">
<title>za_ac_tut_business_AccountFacade</title>
<polygon fill="none" stroke="#000000" points="204.2191,-108 -.0731,-108 -.0731,-72 204.2191,-72 204.2191,-108"/>
<text text-anchor="middle" x="102.073" y="-85.8" font-family="Times,serif" font-size="14.00" fill="#000000">za.ac.tut.business.AccountFacade</text>
</g>
<!-- za_ac_tut_business_AccountFacade&#45;&gt;za_ac_tut_entities_Account -->
<g id="edge5" class="edge">
<title>za_ac_tut_business_AccountFacade-&gt;za_ac_tut_entities_Account</title>
<path fill="none" stroke="#000000" d="M204.1629,-72.2022C272.4383,-60.2995 361.3785,-44.7942 426.6329,-33.4181"/>
<polygon fill="#000000" stroke="#000000" points="427.2388,-36.8654 436.4891,-31.6999 426.0366,-29.9694 427.2388,-36.8654"/>
</g>
<!-- za_ac_tut_web_DeleteUserServlet -->
<g id="node8" class="node">
<title>za_ac_tut_web_DeleteUserServlet</title>
<polygon fill="none" stroke="#000000" points="1332.6459,-180 1137.5001,-180 1137.5001,-144 1332.6459,-144 1332.6459,-180"/>
<text text-anchor="middle" x="1235.073" y="-157.8" font-family="Times,serif" font-size="14.00" fill="#000000">za.ac.tut.web.DeleteUserServlet</text>
</g>
<!-- za_ac_tut_web_DeleteUserServlet&#45;&gt;za_ac_tut_entities_User -->
<g id="edge6" class="edge">
<title>za_ac_tut_web_DeleteUserServlet-&gt;za_ac_tut_entities_User</title>
<path fill="none" stroke="#000000" d="M1235.073,-143.8314C1235.073,-136.131 1235.073,-126.9743 1235.073,-118.4166"/>
<polygon fill="#000000" stroke="#000000" points="1238.5731,-118.4132 1235.073,-108.4133 1231.5731,-118.4133 1238.5731,-118.4132"/>
</g>
<!-- za_ac_tut_web_EditUserServlet -->
<g id="node9" class="node">
<title>za_ac_tut_web_EditUserServlet</title>
<polygon fill="none" stroke="#000000" points="1766.448,-180 1583.698,-180 1583.698,-144 1766.448,-144 1766.448,-180"/>
<text text-anchor="middle" x="1675.073" y="-157.8" font-family="Times,serif" font-size="14.00" fill="#000000">za.ac.tut.web.EditUserServlet</text>
</g>
<!-- za_ac_tut_web_EditUserServlet&#45;&gt;za_ac_tut_entities_User -->
<g id="edge7" class="edge">
<title>za_ac_tut_web_EditUserServlet-&gt;za_ac_tut_entities_User</title>
<path fill="none" stroke="#000000" d="M1583.8009,-145.4911C1580.858,-144.9843 1577.9427,-144.4861 1575.073,-144 1485.348,-128.8012 1382.0785,-112.5793 1313.1168,-101.928"/>
<polygon fill="#000000" stroke="#000000" points="1313.6136,-98.4633 1303.1968,-100.3977 1312.5463,-105.3815 1313.6136,-98.4633"/>
</g>
<!-- za_ac_tut_web_FindUserServlet -->
<g id="node10" class="node">
<title>za_ac_tut_web_FindUserServlet</title>
<polygon fill="none" stroke="#000000" points="2006.2872,-180 1821.8588,-180 1821.8588,-144 2006.2872,-144 2006.2872,-180"/>
<text text-anchor="middle" x="1914.073" y="-157.8" font-family="Times,serif" font-size="14.00" fill="#000000">za.ac.tut.web.FindUserServlet</text>
</g>
<!-- za_ac_tut_web_FindUserServlet&#45;&gt;za_ac_tut_entities_User -->
<g id="edge8" class="edge">
<title>za_ac_tut_web_FindUserServlet-&gt;za_ac_tut_entities_User</title>
<path fill="none" stroke="#000000" d="M1821.6364,-145.8877C1817.0548,-145.2195 1812.5145,-144.5856 1808.073,-144 1631.7961,-120.7595 1423.7277,-103.7371 1313.2341,-95.5174"/>
<polygon fill="#000000" stroke="#000000" points="1313.4059,-92.0207 1303.175,-94.7734 1312.8895,-99.0016 1313.4059,-92.0207"/>
</g>
<!-- za_ac_tut_web_EditProfileServlet -->
<g id="node11" class="node">
<title>za_ac_tut_web_EditProfileServlet</title>
<polygon fill="none" stroke="#000000" points="1723.1208,-252 1529.0252,-252 1529.0252,-216 1723.1208,-216 1723.1208,-252"/>
<text text-anchor="middle" x="1626.073" y="-229.8" font-family="Times,serif" font-size="14.00" fill="#000000">za.ac.tut.web.EditProfileServlet</text>
</g>
<!-- za_ac_tut_web_EditProfileServlet&#45;&gt;za_ac_tut_entities_User -->
<g id="edge10" class="edge">
<title>za_ac_tut_web_EditProfileServlet-&gt;za_ac_tut_entities_User</title>
<path fill="none" stroke="#000000" d="M1703.4446,-215.9216C1753.4792,-200.7097 1804.2738,-176.2665 1775.073,-144 1744.7163,-110.4563 1455.9442,-96.8494 1313.6058,-92.1453"/>
<polygon fill="#000000" stroke="#000000" points="1313.3092,-88.6339 1303.2012,-91.8086 1313.0828,-95.6303 1313.3092,-88.6339"/>
</g>
<!-- za_ac_tut_business_UserFacadeLocal -->
<g id="node12" class="node">
<title>za_ac_tut_business_UserFacadeLocal</title>
<polygon fill="none" stroke="#000000" points="1565.5914,-180 1350.5546,-180 1350.5546,-144 1565.5914,-144 1565.5914,-180"/>
<text text-anchor="middle" x="1458.073" y="-157.8" font-family="Times,serif" font-size="14.00" fill="#000000">za.ac.tut.business.UserFacadeLocal</text>
</g>
<!-- za_ac_tut_web_EditProfileServlet&#45;&gt;za_ac_tut_business_UserFacadeLocal -->
<g id="edge9" class="edge">
<title>za_ac_tut_web_EditProfileServlet-&gt;za_ac_tut_business_UserFacadeLocal</title>
<path fill="none" stroke="#000000" d="M1583.6795,-215.8314C1561.1106,-206.159 1533.1809,-194.1891 1509.3934,-183.9944"/>
<polygon fill="#000000" stroke="#000000" points="1510.7318,-180.7602 1500.1616,-180.038 1507.9744,-187.1943 1510.7318,-180.7602"/>
</g>
<!-- za_ac_tut_web_LoginServlet -->
<g id="node13" class="node">
<title>za_ac_tut_web_LoginServlet</title>
<polygon fill="none" stroke="#000000" points="2190.1306,-180 2024.0154,-180 2024.0154,-144 2190.1306,-144 2190.1306,-180"/>
<text text-anchor="middle" x="2107.073" y="-157.8" font-family="Times,serif" font-size="14.00" fill="#000000">za.ac.tut.web.LoginServlet</text>
</g>
<!-- za_ac_tut_web_LoginServlet&#45;&gt;za_ac_tut_entities_User -->
<g id="edge11" class="edge">
<title>za_ac_tut_web_LoginServlet-&gt;za_ac_tut_entities_User</title>
<path fill="none" stroke="#000000" d="M2023.9044,-145.2479C2020.9281,-144.8014 2017.9773,-144.3832 2015.073,-144 1759.7154,-110.3123 1454.3747,-96.8967 1313.4416,-92.2092"/>
<polygon fill="#000000" stroke="#000000" points="1313.2823,-88.7022 1303.1733,-91.8735 1313.0535,-95.6985 1313.2823,-88.7022"/>
</g>
<!-- za_ac_tut_web_TransferServlet -->
<g id="node14" class="node">
<title>za_ac_tut_web_TransferServlet</title>
<polygon fill="none" stroke="#000000" points="440.0956,-180 260.0504,-180 260.0504,-144 440.0956,-144 440.0956,-180"/>
<text text-anchor="middle" x="350.073" y="-157.8" font-family="Times,serif" font-size="14.00" fill="#000000">za.ac.tut.web.TransferServlet</text>
</g>
<!-- za_ac_tut_web_TransferServlet&#45;&gt;za_ac_tut_entities_User -->
<g id="edge12" class="edge">
<title>za_ac_tut_web_TransferServlet-&gt;za_ac_tut_entities_User</title>
<path fill="none" stroke="#000000" d="M440.1158,-145.1898C443.134,-144.7664 446.1261,-144.368 449.073,-144 706.9461,-111.8002 1014.989,-97.6518 1156.6923,-92.4965"/>
<polygon fill="#000000" stroke="#000000" points="1157.1467,-95.9826 1167.0148,-92.1262 1156.8957,-88.9871 1157.1467,-95.9826"/>
</g>
<!-- za_ac_tut_web_TransferServlet&#45;&gt;za_ac_tut_entities_Account -->
<g id="edge13" class="edge">
<title>za_ac_tut_web_TransferServlet-&gt;za_ac_tut_entities_Account</title>
<path fill="none" stroke="#000000" d="M370.9704,-143.7623C400.2293,-118.2272 453.5055,-71.7316 486.438,-42.9906"/>
<polygon fill="#000000" stroke="#000000" points="489.1124,-45.302 494.3453,-36.0896 484.5097,-40.028 489.1124,-45.302"/>
</g>
<!-- za_ac_tut_web_RegisterServlet -->
<g id="node15" class="node">
<title>za_ac_tut_web_RegisterServlet</title>
<polygon fill="none" stroke="#000000" points="939.8398,-252 760.3062,-252 760.3062,-216 939.8398,-216 939.8398,-252"/>
<text text-anchor="middle" x="850.073" y="-229.8" font-family="Times,serif" font-size="14.00" fill="#000000">za.ac.tut.web.RegisterServlet</text>
</g>
<!-- za_ac_tut_web_RegisterServlet&#45;&gt;za_ac_tut_entities_User -->
<g id="edge16" class="edge">
<title>za_ac_tut_web_RegisterServlet-&gt;za_ac_tut_entities_User</title>
<path fill="none" stroke="#000000" d="M863.3268,-215.7524C880.8542,-192.1422 911.3542,-152.965 927.073,-144 965.3214,-122.1855 1078.7664,-106.3346 1156.7522,-97.6486"/>
<polygon fill="#000000" stroke="#000000" points="1157.4728,-101.0907 1167.0319,-96.5221 1156.7102,-94.1323 1157.4728,-101.0907"/>
</g>
<!-- za_ac_tut_web_RegisterServlet&#45;&gt;za_ac_tut_entities_Account -->
<g id="edge17" class="edge">
<title>za_ac_tut_web_RegisterServlet-&gt;za_ac_tut_entities_Account</title>
<path fill="none" stroke="#000000" d="M760.3385,-232.442C601.5902,-228.7488 284.708,-216.8037 251.073,-180 189.0194,-112.1006 327.7581,-62.612 426.6633,-37.2454"/>
<polygon fill="#000000" stroke="#000000" points="427.5605,-40.6288 436.4024,-34.7918 425.8503,-33.8409 427.5605,-40.6288"/>
</g>
<!-- za_ac_tut_web_RegisterServlet&#45;&gt;za_ac_tut_business_SendEmail -->
<g id="edge15" class="edge">
<title>za_ac_tut_web_RegisterServlet-&gt;za_ac_tut_business_SendEmail</title>
<path fill="none" stroke="#000000" d="M835.1848,-215.8314C828.32,-207.454 820.0429,-197.3531 812.5219,-188.1749"/>
<polygon fill="#000000" stroke="#000000" points="815.2071,-185.9297 806.1616,-180.4133 809.7927,-190.3665 815.2071,-185.9297"/>
</g>
<!-- za_ac_tut_web_RegisterServlet&#45;&gt;za_ac_tut_business_UserFacadeLocal -->
<g id="edge14" class="edge">
<title>za_ac_tut_web_RegisterServlet-&gt;za_ac_tut_business_UserFacadeLocal</title>
<path fill="none" stroke="#000000" d="M939.9969,-225.3463C1036.5328,-215.7793 1194.6433,-199.3133 1340.3274,-180.2044"/>
<polygon fill="#000000" stroke="#000000" points="1340.8923,-183.6603 1350.349,-178.883 1339.9772,-176.7203 1340.8923,-183.6603"/>
</g>
<!-- za_ac_tut_web_VerifyCodeServlet -->
<g id="node16" class="node">
<title>za_ac_tut_web_VerifyCodeServlet</title>
<polygon fill="none" stroke="#000000" points="2406.2718,-180 2207.8742,-180 2207.8742,-144 2406.2718,-144 2406.2718,-180"/>
<text text-anchor="middle" x="2307.073" y="-157.8" font-family="Times,serif" font-size="14.00" fill="#000000">za.ac.tut.web.VerifyCodeServlet</text>
</g>
<!-- za_ac_tut_web_VerifyCodeServlet&#45;&gt;za_ac_tut_entities_User -->
<g id="edge18" class="edge">
<title>za_ac_tut_web_VerifyCodeServlet-&gt;za_ac_tut_entities_User</title>
<path fill="none" stroke="#000000" d="M2207.6765,-145.0145C2204.7795,-144.6541 2201.9069,-144.3146 2199.073,-144 1871.278,-107.6128 1477.9101,-95.26 1313.3964,-91.4913"/>
<polygon fill="#000000" stroke="#000000" points="1313.4429,-87.9915 1303.3667,-91.2657 1313.2854,-94.9898 1313.4429,-87.9915"/>
</g>
<!-- userinfofound_jsp_Servlet_generated -->
<g id="node17" class="node">
<title>userinfofound_jsp_Servlet_generated</title>
<polygon fill="none" stroke="#000000" points="684.003,-180 458.143,-180 458.143,-144 684.003,-144 684.003,-180"/>
<text text-anchor="middle" x="571.073" y="-157.8" font-family="Times,serif" font-size="14.00" fill="#000000">userinfofound_jsp_Servlet_generated</text>
</g>
<!-- userinfofound_jsp_Servlet_generated&#45;&gt;za_ac_tut_entities_User -->
<g id="edge19" class="edge">
<title>userinfofound_jsp_Servlet_generated-&gt;za_ac_tut_entities_User</title>
<path fill="none" stroke="#000000" d="M684.0434,-145.1406C687.084,-144.7485 690.0982,-144.3674 693.073,-144 857.6941,-123.6666 1051.1833,-105.8455 1156.6928,-96.6401"/>
<polygon fill="#000000" stroke="#000000" points="1157.2769,-100.1026 1166.9361,-95.7493 1156.6704,-93.1289 1157.2769,-100.1026"/>
</g>
<!-- userinfofound_jsp_Servlet_generated&#45;&gt;za_ac_tut_entities_Account -->
<g id="edge20" class="edge">
<title>userinfofound_jsp_Servlet_generated-&gt;za_ac_tut_entities_Account</title>
<path fill="none" stroke="#000000" d="M563.9806,-143.7623C554.3448,-118.9846 537.0341,-74.4714 525.804,-45.5939"/>
<polygon fill="#000000" stroke="#000000" points="528.9944,-44.1411 522.1079,-36.0896 522.4704,-46.6783 528.9944,-44.1411"/>
</g>
<!-- viewusers_outcome_jsp_Servlet_generated -->
<g id="node18" class="node">
<title>viewusers_outcome_jsp_Servlet_generated</title>
<polygon fill="none" stroke="#000000" points="2683.1583,-180 2424.9877,-180 2424.9877,-144 2683.1583,-144 2683.1583,-180"/>
<text text-anchor="middle" x="2554.073" y="-157.8" font-family="Times,serif" font-size="14.00" fill="#000000">viewusers_outcome_jsp_Servlet_generated</text>
</g>
<!-- viewusers_outcome_jsp_Servlet_generated&#45;&gt;za_ac_tut_entities_User -->
<g id="edge21" class="edge">
<title>viewusers_outcome_jsp_Servlet_generated-&gt;za_ac_tut_entities_User</title>
<path fill="none" stroke="#000000" d="M2424.6301,-144.8797C2421.414,-144.5698 2418.2243,-144.2757 2415.073,-144 2001.0756,-107.7846 1503.1072,-95.0675 1313.5243,-91.3398"/>
<polygon fill="#000000" stroke="#000000" points="1313.4416,-87.8376 1303.3757,-91.1431 1313.3059,-94.8363 1313.4416,-87.8376"/>
</g>
<!-- viewusers_outcome_jsp_Servlet_generated&#45;&gt;za_ac_tut_entities_Account -->
<g id="edge22" class="edge">
<title>viewusers_outcome_jsp_Servlet_generated-&gt;za_ac_tut_entities_Account</title>
<path fill="none" stroke="#000000" d="M2424.622,-144.9669C2421.4083,-144.631 2418.2213,-144.3079 2415.073,-144 1719.1062,-75.9279 876.0468,-34.3233 604.1509,-21.9231"/>
<polygon fill="#000000" stroke="#000000" points="604.0958,-18.417 593.9472,-21.4592 603.7779,-25.4098 604.0958,-18.417"/>
</g>
<!-- za_ac_tut_entities_Account_ -->
<g id="node19" class="node">
<title>za_ac_tut_entities_Account_</title>
<polygon fill="none" stroke="#000000" points="3056.076,-252 2892.07,-252 2892.07,-216 3056.076,-216 3056.076,-252"/>
<text text-anchor="middle" x="2974.073" y="-229.8" font-family="Times,serif" font-size="14.00" fill="#000000">za.ac.tut.entities.Account_</text>
</g>
<!-- za_ac_tut_entities_Admin_ -->
<g id="node20" class="node">
<title>za_ac_tut_entities_Admin_</title>
<polygon fill="none" stroke="#000000" points="3230.0366,-252 3074.1094,-252 3074.1094,-216 3230.0366,-216 3230.0366,-252"/>
<text text-anchor="middle" x="3152.073" y="-229.8" font-family="Times,serif" font-size="14.00" fill="#000000">za.ac.tut.entities.Admin_</text>
</g>
<!-- za_ac_tut_entities_User_ -->
<g id="node21" class="node">
<title>za_ac_tut_entities_User_</title>
<polygon fill="none" stroke="#000000" points="3391.5761,-252 3248.5699,-252 3248.5699,-216 3391.5761,-216 3391.5761,-252"/>
<text text-anchor="middle" x="3320.073" y="-229.8" font-family="Times,serif" font-size="14.00" fill="#000000">za.ac.tut.entities.User_</text>
</g>
<!-- za_ac_tut_business_AbstractFacade -->
<g id="node22" class="node">
<title>za_ac_tut_business_AbstractFacade</title>
<polygon fill="none" stroke="#000000" points="3614.2148,-252 3409.9312,-252 3409.9312,-216 3614.2148,-216 3614.2148,-252"/>
<text text-anchor="middle" x="3512.073" y="-229.8" font-family="Times,serif" font-size="14.00" fill="#000000">za.ac.tut.business.AbstractFacade</text>
</g>
<!-- za_ac_tut_web_AddMemberServlet -->
<g id="node23" class="node">
<title>za_ac_tut_web_AddMemberServlet</title>
<polygon fill="none" stroke="#000000" points="3836.2191,-252 3631.9269,-252 3631.9269,-216 3836.2191,-216 3836.2191,-252"/>
<text text-anchor="middle" x="3734.073" y="-229.8" font-family="Times,serif" font-size="14.00" fill="#000000">za.ac.tut.web.AddMemberServlet</text>
</g>
<!-- za_ac_tut_web_CreateInvoiceServlet -->
<g id="node24" class="node">
<title>za_ac_tut_web_CreateInvoiceServlet</title>
<polygon fill="none" stroke="#000000" points="4065.6994,-252 3854.4466,-252 3854.4466,-216 4065.6994,-216 4065.6994,-252"/>
<text text-anchor="middle" x="3960.073" y="-229.8" font-family="Times,serif" font-size="14.00" fill="#000000">za.ac.tut.web.CreateInvoiceServlet</text>
</g>
<!-- za_ac_tut_web_EndDeleteUserServlet -->
<g id="node25" class="node">
<title>za_ac_tut_web_EndDeleteUserServlet</title>
<polygon fill="none" stroke="#000000" points="4302.198,-252 4083.948,-252 4083.948,-216 4302.198,-216 4302.198,-252"/>
<text text-anchor="middle" x="4193.073" y="-229.8" font-family="Times,serif" font-size="14.00" fill="#000000">za.ac.tut.web.EndDeleteUserServlet</text>
</g>
<!-- za_ac_tut_web_LogoutServlet -->
<g id="node26" class="node">
<title>za_ac_tut_web_LogoutServlet</title>
<polygon fill="none" stroke="#000000" points="4493.6306,-252 4320.5154,-252 4320.5154,-216 4493.6306,-216 4493.6306,-252"/>
<text text-anchor="middle" x="4407.073" y="-229.8" font-family="Times,serif" font-size="14.00" fill="#000000">za.ac.tut.web.LogoutServlet</text>
</g>
<!-- za_ac_tut_web_GetAllServlet -->
<g id="node27" class="node">
<title>za_ac_tut_web_GetAllServlet</title>
<polygon fill="none" stroke="#000000" points="4682.2872,-252 4511.8588,-252 4511.8588,-216 4682.2872,-216 4682.2872,-252"/>
<text text-anchor="middle" x="4597.073" y="-229.8" font-family="Times,serif" font-size="14.00" fill="#000000">za.ac.tut.web.GetAllServlet</text>
</g>
<!-- org_apache_jsp_authentication_jsp -->
<g id="node28" class="node">
<title>org_apache_jsp_authentication_jsp</title>
<polygon fill="none" stroke="#000000" points="4903.5738,-252 4700.5722,-252 4700.5722,-216 4903.5738,-216 4903.5738,-252"/>
<text text-anchor="middle" x="4802.073" y="-229.8" font-family="Times,serif" font-size="14.00" fill="#000000">org.apache.jsp.authentication_jsp</text>
</g>
<!-- org_apache_jsp_insufficientamount_jsp -->
<g id="node29" class="node">
<title>org_apache_jsp_insufficientamount_jsp</title>
<polygon fill="none" stroke="#000000" points="5151.016,-252 4921.13,-252 4921.13,-216 5151.016,-216 5151.016,-252"/>
<text text-anchor="middle" x="5036.073" y="-229.8" font-family="Times,serif" font-size="14.00" fill="#000000">org.apache.jsp.insufficientamount_jsp</text>
</g>
<!-- edituser_jsp_Servlet_generated -->
<g id="node30" class="node">
<title>edituser_jsp_Servlet_generated</title>
<polygon fill="none" stroke="#000000" points="5360.7872,-252 5169.3588,-252 5169.3588,-216 5360.7872,-216 5360.7872,-252"/>
<text text-anchor="middle" x="5265.073" y="-229.8" font-family="Times,serif" font-size="14.00" fill="#000000">edituser_jsp_Servlet_generated</text>
</g>
<!-- finduser_jsp_Servlet_generated -->
<g id="node31" class="node">
<title>finduser_jsp_Servlet_generated</title>
<polygon fill="none" stroke="#000000" points="5571.8426,-252 5378.3034,-252 5378.3034,-216 5571.8426,-216 5571.8426,-252"/>
<text text-anchor="middle" x="5475.073" y="-229.8" font-family="Times,serif" font-size="14.00" fill="#000000">finduser_jsp_Servlet_generated</text>
</g>
<!-- insufficientamount_jsp_Servlet_generated -->
<g id="node32" class="node">
<title>insufficientamount_jsp_Servlet_generated</title>
<polygon fill="none" stroke="#000000" points="5842.7246,-252 5589.4214,-252 5589.4214,-216 5842.7246,-216 5842.7246,-252"/>
<text text-anchor="middle" x="5716.073" y="-229.8" font-family="Times,serif" font-size="14.00" fill="#000000">insufficientamount_jsp_Servlet_generated</text>
</g>
<!-- invalidauthentication_jsp_Servlet_generated -->
<g id="node33" class="node">
<title>invalidauthentication_jsp_Servlet_generated</title>
<polygon fill="none" stroke="#000000" points="6125.6695,-252 5860.4765,-252 5860.4765,-216 6125.6695,-216 6125.6695,-252"/>
<text text-anchor="middle" x="5993.073" y="-229.8" font-family="Times,serif" font-size="14.00" fill="#000000">invalidauthentication_jsp_Servlet_generated</text>
</g>
<!-- invaliduser_jsp_Servlet_generated -->
<g id="node34" class="node">
<title>invaliduser_jsp_Servlet_generated</title>
<polygon fill="none" stroke="#000000" points="6353.678,-252 6144.468,-252 6144.468,-216 6353.678,-216 6353.678,-252"/>
<text text-anchor="middle" x="6249.073" y="-229.8" font-family="Times,serif" font-size="14.00" fill="#000000">invaliduser_jsp_Servlet_generated</text>
</g>
<!-- loginerror_jsp_Servlet_generated -->
<g id="node35" class="node">
<title>loginerror_jsp_Servlet_generated</title>
<polygon fill="none" stroke="#000000" points="6574.9493,-252 6371.1967,-252 6371.1967,-216 6574.9493,-216 6574.9493,-252"/>
<text text-anchor="middle" x="6473.073" y="-229.8" font-family="Times,serif" font-size="14.00" fill="#000000">loginerror_jsp_Servlet_generated</text>
</g>
<!-- invoiceoutcome_jsp_Servlet_generated -->
<g id="node36" class="node">
<title>invoiceoutcome_jsp_Servlet_generated</title>
<polygon fill="none" stroke="#000000" points="6829.3923,-252 6592.7537,-252 6592.7537,-216 6829.3923,-216 6829.3923,-252"/>
<text text-anchor="middle" x="6711.073" y="-229.8" font-family="Times,serif" font-size="14.00" fill="#000000">invoiceoutcome_jsp_Servlet_generated</text>
</g>
<!-- newinvoice_jsp_Servlet_generated -->
<g id="node37" class="node">
<title>newinvoice_jsp_Servlet_generated</title>
<polygon fill="none" stroke="#000000" points="7059.003,-252 6847.143,-252 6847.143,-216 7059.003,-216 7059.003,-252"/>
<text text-anchor="middle" x="6953.073" y="-229.8" font-family="Times,serif" font-size="14.00" fill="#000000">newinvoice_jsp_Servlet_generated</text>
</g>
<!-- loginsecurity_jsp_Servlet_generated -->
<g id="node38" class="node">
<title>loginsecurity_jsp_Servlet_generated</title>
<polygon fill="none" stroke="#000000" points="7297.5688,-252 7076.5772,-252 7076.5772,-216 7297.5688,-216 7297.5688,-252"/>
<text text-anchor="middle" x="7187.073" y="-229.8" font-family="Times,serif" font-size="14.00" fill="#000000">loginsecurity_jsp_Servlet_generated</text>
</g>
<!-- authentication_jsp_Servlet_generated -->
<g id="node39" class="node">
<title>authentication_jsp_Servlet_generated</title>
<polygon fill="none" stroke="#000000" points="7542.283,-252 7315.863,-252 7315.863,-216 7542.283,-216 7542.283,-252"/>
<text text-anchor="middle" x="7429.073" y="-229.8" font-family="Times,serif" font-size="14.00" fill="#000000">authentication_jsp_Servlet_generated</text>
</g>
<!-- profile_jsp_Servlet_generated -->
<g id="node40" class="node">
<title>profile_jsp_Servlet_generated</title>
<polygon fill="none" stroke="#000000" points="7745.2886,-252 7560.8574,-252 7560.8574,-216 7745.2886,-216 7745.2886,-252"/>
<text text-anchor="middle" x="7653.073" y="-229.8" font-family="Times,serif" font-size="14.00" fill="#000000">profile_jsp_Servlet_generated</text>
</g>
<!-- newinvoiceoutcome_jsp_Servlet_generated -->
<g id="node41" class="node">
<title>newinvoiceoutcome_jsp_Servlet_generated</title>
<polygon fill="none" stroke="#000000" points="8023.2134,-252 7762.9326,-252 7762.9326,-216 8023.2134,-216 8023.2134,-252"/>
<text text-anchor="middle" x="7893.073" y="-229.8" font-family="Times,serif" font-size="14.00" fill="#000000">newinvoiceoutcome_jsp_Servlet_generated</text>
</g>
<!-- transfer_jsp_Servlet_generated -->
<g id="node42" class="node">
<title>transfer_jsp_Servlet_generated</title>
<polygon fill="none" stroke="#000000" points="8231.2177,-252 8040.9283,-252 8040.9283,-216 8231.2177,-216 8231.2177,-252"/>
<text text-anchor="middle" x="8136.073" y="-229.8" font-family="Times,serif" font-size="14.00" fill="#000000">transfer_jsp_Servlet_generated</text>
</g>
<!-- registeruser_jsp_Servlet_generated -->
<g id="node43" class="node">
<title>registeruser_jsp_Servlet_generated</title>
<polygon fill="none" stroke="#000000" points="8461.2676,-252 8248.8784,-252 8248.8784,-216 8461.2676,-216 8461.2676,-252"/>
<text text-anchor="middle" x="8355.073" y="-229.8" font-family="Times,serif" font-size="14.00" fill="#000000">registeruser_jsp_Servlet_generated</text>
</g>
<!-- userfound_jsp_Servlet_generated -->
<g id="node44" class="node">
<title>userfound_jsp_Servlet_generated</title>
<polygon fill="none" stroke="#000000" points="8682.9522,-252 8479.1938,-252 8479.1938,-216 8682.9522,-216 8682.9522,-252"/>
<text text-anchor="middle" x="8581.073" y="-229.8" font-family="Times,serif" font-size="14.00" fill="#000000">userfound_jsp_Servlet_generated</text>
</g>
<!-- transfer_outcome_jsp_Servlet_generated -->
<g id="node45" class="node">
<title>transfer_outcome_jsp_Servlet_generated</title>
<polygon fill="none" stroke="#000000" points="8945.9283,-252 8700.2177,-252 8700.2177,-216 8945.9283,-216 8945.9283,-252"/>
<text text-anchor="middle" x="8823.073" y="-229.8" font-family="Times,serif" font-size="14.00" fill="#000000">transfer_outcome_jsp_Servlet_generated</text>
</g>
<!-- usernotfound_jsp_Servlet_generated -->
<g id="node46" class="node">
<title>usernotfound_jsp_Servlet_generated</title>
<polygon fill="none" stroke="#000000" points="9184.8426,-252 8963.3034,-252 8963.3034,-216 9184.8426,-216 9184.8426,-252"/>
<text text-anchor="middle" x="9074.073" y="-229.8" font-family="Times,serif" font-size="14.00" fill="#000000">usernotfound_jsp_Servlet_generated</text>
</g>
<!-- userremoved_jsp_Servlet_generated -->
<g id="node47" class="node">
<title>userremoved_jsp_Servlet_generated</title>
<polygon fill="none" stroke="#000000" points="9421.7718,-252 9202.3742,-252 9202.3742,-216 9421.7718,-216 9421.7718,-252"/>
<text text-anchor="middle" x="9312.073" y="-229.8" font-family="Times,serif" font-size="14.00" fill="#000000">userremoved_jsp_Servlet_generated</text>
</g>
<!-- viewbalance_jsp_Servlet_generated -->
<g id="node48" class="node">
<title>viewbalance_jsp_Servlet_generated</title>
<polygon fill="none" stroke="#000000" points="9657.9325,-252 9440.2135,-252 9440.2135,-216 9657.9325,-216 9657.9325,-252"/>
<text text-anchor="middle" x="9549.073" y="-229.8" font-family="Times,serif" font-size="14.00" fill="#000000">viewbalance_jsp_Servlet_generated</text>
</g>
<!-- viewstatement_jsp_Servlet_generated -->
<g id="node49" class="node">
<title>viewstatement_jsp_Servlet_generated</title>
<polygon fill="none" stroke="#000000" points="9904.3341,-252 9675.8119,-252 9675.8119,-216 9904.3341,-216 9904.3341,-252"/>
<text text-anchor="middle" x="9790.073" y="-229.8" font-family="Times,serif" font-size="14.00" fill="#000000">viewstatement_jsp_Servlet_generated</text>
</g>
<!-- viewuser_jsp_Servlet_generated -->
<g id="node50" class="node">
<title>viewuser_jsp_Servlet_generated</title>
<polygon fill="none" stroke="#000000" points="10120.003,-252 9922.143,-252 9922.143,-216 10120.003,-216 10120.003,-252"/>
<text text-anchor="middle" x="10021.073" y="-229.8" font-family="Times,serif" font-size="14.00" fill="#000000">viewuser_jsp_Servlet_generated</text>
</g>
<!-- register_outcome_jsp_Servlet_generated -->
<g id="node51" class="node">
<title>register_outcome_jsp_Servlet_generated</title>
<polygon fill="none" stroke="#000000" points="10382.1584,-252 10137.9876,-252 10137.9876,-216 10382.1584,-216 10382.1584,-252"/>
<text text-anchor="middle" x="10260.073" y="-229.8" font-family="Times,serif" font-size="14.00" fill="#000000">register_outcome_jsp_Servlet_generated</text>
</g>
</g>
</svg>