<?xml version="1.0" encoding="UTF-8" standalone="no"?><!DOCTYPE svg PUBLIC "-//W3C//DTD SVG 1.1//EN" "http://www.w3.org/Graphics/SVG/1.1/DTD/svg11.dtd"><!-- Generated by graphviz version 2.40.1 (20161225.0304)
 --><!-- Title: classgraph Pages: 1 --><svg xmlns="http://www.w3.org/2000/svg" xmlns:xlink="http://www.w3.org/1999/xlink" width="2160pt" height="185pt" viewBox="0.00 0.00 2160.00 184.99">
<g id="graph0" class="graph" transform="scale(.7115 .7115) rotate(0) translate(4 256)">
<title>classgraph</title>
<polygon fill="#ffffff" stroke="transparent" points="-4,4 -4,-256 3031.8767,-256 3031.8767,4 -4,4"/>
<!-- za_ac_tut_entities_User -->
<g id="node1" class="node">
<title>za_ac_tut_entities_User</title>
<polygon fill="none" stroke="#000000" points="1373.076,-108 1223.07,-108 1223.07,-72 1373.076,-72 1373.076,-108"/>
<text text-anchor="middle" x="1298.073" y="-85.8" font-family="Times,serif" font-size="14.00" fill="#000000">za_ac_tut_entities_User</text>
</g>
<!-- za_ac_tut_entities_Account -->
<g id="node2" class="node">
<title>za_ac_tut_entities_Account</title>
<polygon fill="none" stroke="#000000" points="627.5759,-36 456.5701,-36 456.5701,0 627.5759,0 627.5759,-36"/>
<text text-anchor="middle" x="542.073" y="-13.8" font-family="Times,serif" font-size="14.00" fill="#000000">za_ac_tut_entities_Account</text>
</g>
<!-- za_ac_tut_entities_User&#45;&gt;za_ac_tut_entities_Account -->
<g id="edge1" class="edge">
<title>za_ac_tut_entities_User-&gt;za_ac_tut_entities_Account</title>
<path fill="none" stroke="#000000" d="M1222.8209,-82.8331C1084.5429,-69.6638 790.2757,-41.6384 637.9285,-27.1291"/>
<polygon fill="#000000" stroke="#000000" points="637.9423,-23.6147 627.6554,-26.1507 637.2785,-30.5831 637.9423,-23.6147"/>
</g>
<!-- za_ac_tut_business_AdminFacade -->
<g id="node3" class="node">
<title>za_ac_tut_business_AdminFacade</title>
<polygon fill="none" stroke="#000000" points="3027.6808,-252 2818.4652,-252 2818.4652,-216 3027.6808,-216 3027.6808,-252"/>
<text text-anchor="middle" x="2923.073" y="-229.8" font-family="Times,serif" font-size="14.00" fill="#000000">za_ac_tut_business_AdminFacade</text>
</g>
<!-- za_ac_tut_entities_Admin -->
<g id="node4" class="node">
<title>za_ac_tut_entities_Admin</title>
<polygon fill="none" stroke="#000000" points="3004.5366,-180 2841.6094,-180 2841.6094,-144 3004.5366,-144 3004.5366,-180"/>
<text text-anchor="middle" x="2923.073" y="-157.8" font-family="Times,serif" font-size="14.00" fill="#000000">za_ac_tut_entities_Admin</text>
</g>
<!-- za_ac_tut_business_AdminFacade&#45;&gt;za_ac_tut_entities_Admin -->
<g id="edge2" class="edge">
<title>za_ac_tut_business_AdminFacade-&gt;za_ac_tut_entities_Admin</title>
<path fill="none" stroke="#000000" d="M2923.073,-215.8314C2923.073,-208.131 2923.073,-198.9743 2923.073,-190.4166"/>
<polygon fill="#000000" stroke="#000000" points="2926.5731,-190.4132 2923.073,-180.4133 2919.5731,-190.4133 2926.5731,-190.4132"/>
</g>
<!-- za_ac_tut_business_UserFacade -->
<g id="node5" class="node">
<title>za_ac_tut_business_UserFacade</title>
<polygon fill="none" stroke="#000000" points="1175.7191,-180 978.4269,-180 978.4269,-144 1175.7191,-144 1175.7191,-180"/>
<text text-anchor="middle" x="1077.073" y="-157.8" font-family="Times,serif" font-size="14.00" fill="#000000">za_ac_tut_business_UserFacade</text>
</g>
<!-- za_ac_tut_business_UserFacade&#45;&gt;za_ac_tut_entities_User -->
<g id="edge3" class="edge">
<title>za_ac_tut_business_UserFacade-&gt;za_ac_tut_entities_User</title>
<path fill="none" stroke="#000000" d="M1132.5554,-143.9243C1163.0301,-133.9959 1201.0003,-121.6255 1232.8835,-111.2382"/>
<polygon fill="#000000" stroke="#000000" points="1234.1439,-114.5087 1242.5678,-108.0831 1231.9755,-107.853 1234.1439,-114.5087"/>
</g>
<!-- za_ac_tut_business_SendEmail -->
<g id="node6" class="node">
<title>za_ac_tut_business_SendEmail</title>
<polygon fill="none" stroke="#000000" points="922.0884,-180 730.0576,-180 730.0576,-144 922.0884,-144 922.0884,-180"/>
<text text-anchor="middle" x="826.073" y="-157.8" font-family="Times,serif" font-size="14.00" fill="#000000">za_ac_tut_business_SendEmail</text>
</g>
<!-- za_ac_tut_business_SendEmail&#45;&gt;za_ac_tut_entities_User -->
<g id="edge4" class="edge">
<title>za_ac_tut_business_SendEmail-&gt;za_ac_tut_entities_User</title>
<path fill="none" stroke="#000000" d="M922.3447,-146.166C926.9851,-145.428 931.5801,-144.7027 936.073,-144 1030.6588,-129.2072 1139.2964,-113.1226 1212.6846,-102.3904"/>
<polygon fill="#000000" stroke="#000000" points="1213.412,-105.8214 1222.8009,-100.9123 1212.3999,-98.8949 1213.412,-105.8214"/>
</g>
<!-- za_ac_tut_business_AccountFacade -->
<g id="node7" class="node">
<title>za_ac_tut_business_AccountFacade</title>
<polygon fill="none" stroke="#000000" points="218.219,-108 -.073,-108 -.073,-72 218.219,-72 218.219,-108"/>
<text text-anchor="middle" x="109.073" y="-85.8" font-family="Times,serif" font-size="14.00" fill="#000000">za_ac_tut_business_AccountFacade</text>
</g>
<!-- za_ac_tut_business_AccountFacade&#45;&gt;za_ac_tut_entities_Account -->
<g id="edge5" class="edge">
<title>za_ac_tut_business_AccountFacade-&gt;za_ac_tut_entities_Account</title>
<path fill="none" stroke="#000000" d="M217.4992,-71.9707C287.7892,-60.2828 378.5204,-45.1958 446.1764,-33.9458"/>
<polygon fill="#000000" stroke="#000000" points="447.117,-37.3376 456.4074,-32.2446 445.9687,-30.4324 447.117,-37.3376"/>
</g>
<!-- za_ac_tut_web_DeleteUserServlet -->
<g id="node8" class="node">
<title>za_ac_tut_web_DeleteUserServlet</title>
<polygon fill="none" stroke="#000000" points="1402.6458,-180 1193.5002,-180 1193.5002,-144 1402.6458,-144 1402.6458,-180"/>
<text text-anchor="middle" x="1298.073" y="-157.8" font-family="Times,serif" font-size="14.00" fill="#000000">za_ac_tut_web_DeleteUserServlet</text>
</g>
<!-- za_ac_tut_web_DeleteUserServlet&#45;&gt;za_ac_tut_entities_User -->
<g id="edge6" class="edge">
<title>za_ac_tut_web_DeleteUserServlet-&gt;za_ac_tut_entities_User</title>
<path fill="none" stroke="#000000" d="M1298.073,-143.8314C1298.073,-136.131 1298.073,-126.9743 1298.073,-118.4166"/>
<polygon fill="#000000" stroke="#000000" points="1301.5731,-118.4132 1298.073,-108.4133 1294.5731,-118.4133 1301.5731,-118.4132"/>
</g>
<!-- za_ac_tut_web_EditUserServlet -->
<g id="node9" class="node">
<title>za_ac_tut_web_EditUserServlet</title>
<polygon fill="none" stroke="#000000" points="1864.448,-180 1667.698,-180 1667.698,-144 1864.448,-144 1864.448,-180"/>
<text text-anchor="middle" x="1766.073" y="-157.8" font-family="Times,serif" font-size="14.00" fill="#000000">za_ac_tut_web_EditUserServlet</text>
</g>
<!-- za_ac_tut_web_EditUserServlet&#45;&gt;za_ac_tut_entities_User -->
<g id="edge7" class="edge">
<title>za_ac_tut_web_EditUserServlet-&gt;za_ac_tut_entities_User</title>
<path fill="none" stroke="#000000" d="M1667.8373,-145.4031C1664.8833,-144.9269 1661.9566,-144.4582 1659.073,-144 1564.779,-129.0175 1456.4361,-112.9665 1383.241,-102.2941"/>
<polygon fill="#000000" stroke="#000000" points="1383.5513,-98.8024 1373.1513,-100.8245 1382.5424,-105.7294 1383.5513,-98.8024"/>
</g>
<!-- za_ac_tut_web_FindUserServlet -->
<g id="node10" class="node">
<title>za_ac_tut_web_FindUserServlet</title>
<polygon fill="none" stroke="#000000" points="2118.2872,-180 1919.8588,-180 1919.8588,-144 2118.2872,-144 2118.2872,-180"/>
<text text-anchor="middle" x="2019.073" y="-157.8" font-family="Times,serif" font-size="14.00" fill="#000000">za_ac_tut_web_FindUserServlet</text>
</g>
<!-- za_ac_tut_web_FindUserServlet&#45;&gt;za_ac_tut_entities_User -->
<g id="edge8" class="edge">
<title>za_ac_tut_web_FindUserServlet-&gt;za_ac_tut_entities_User</title>
<path fill="none" stroke="#000000" d="M1919.6092,-145.7644C1915.0378,-145.1416 1910.5088,-144.5496 1906.073,-144 1720.0899,-120.9562 1500.919,-103.9806 1383.1657,-95.686"/>
<polygon fill="#000000" stroke="#000000" points="1383.3516,-92.1905 1373.1314,-94.9829 1382.8623,-99.1734 1383.3516,-92.1905"/>
</g>
<!-- za_ac_tut_web_EditProfileServlet -->
<g id="node11" class="node">
<title>za_ac_tut_web_EditProfileServlet</title>
<polygon fill="none" stroke="#000000" points="1817.1208,-252 1609.0252,-252 1609.0252,-216 1817.1208,-216 1817.1208,-252"/>
<text text-anchor="middle" x="1713.073" y="-229.8" font-family="Times,serif" font-size="14.00" fill="#000000">za_ac_tut_web_EditProfileServlet</text>
</g>
<!-- za_ac_tut_web_EditProfileServlet&#45;&gt;za_ac_tut_entities_User -->
<g id="edge10" class="edge">
<title>za_ac_tut_web_EditProfileServlet-&gt;za_ac_tut_entities_User</title>
<path fill="none" stroke="#000000" d="M1799.2428,-215.948C1851.7166,-201.1558 1903.3268,-177.2282 1873.073,-144 1840.7809,-108.5331 1535.5015,-95.9167 1383.3787,-91.8064"/>
<polygon fill="#000000" stroke="#000000" points="1383.2293,-88.3013 1373.1404,-91.5363 1383.0446,-95.2989 1383.2293,-88.3013"/>
</g>
<!-- za_ac_tut_business_UserFacadeLocal -->
<g id="node12" class="node">
<title>za_ac_tut_business_UserFacadeLocal</title>
<polygon fill="none" stroke="#000000" points="1649.5914,-180 1420.5546,-180 1420.5546,-144 1649.5914,-144 1649.5914,-180"/>
<text text-anchor="middle" x="1535.073" y="-157.8" font-family="Times,serif" font-size="14.00" fill="#000000">za_ac_tut_business_UserFacadeLocal</text>
</g>
<!-- za_ac_tut_web_EditProfileServlet&#45;&gt;za_ac_tut_business_UserFacadeLocal -->
<g id="edge9" class="edge">
<title>za_ac_tut_web_EditProfileServlet-&gt;za_ac_tut_business_UserFacadeLocal</title>
<path fill="none" stroke="#000000" d="M1668.1561,-215.8314C1644.138,-206.1162 1614.3896,-194.0831 1589.1138,-183.8592"/>
<polygon fill="#000000" stroke="#000000" points="1590.2497,-180.5432 1579.6669,-180.038 1587.6248,-187.0325 1590.2497,-180.5432"/>
</g>
<!-- za_ac_tut_web_LoginServlet -->
<g id="node13" class="node">
<title>za_ac_tut_web_LoginServlet</title>
<polygon fill="none" stroke="#000000" points="2316.1306,-180 2136.0154,-180 2136.0154,-144 2316.1306,-144 2316.1306,-180"/>
<text text-anchor="middle" x="2226.073" y="-157.8" font-family="Times,serif" font-size="14.00" fill="#000000">za_ac_tut_web_LoginServlet</text>
</g>
<!-- za_ac_tut_web_LoginServlet&#45;&gt;za_ac_tut_entities_User -->
<g id="edge11" class="edge">
<title>za_ac_tut_web_LoginServlet-&gt;za_ac_tut_entities_User</title>
<path fill="none" stroke="#000000" d="M2136.0319,-145.1761C2133.0132,-144.7567 2130.0205,-144.3627 2127.073,-144 1856.6516,-110.7204 1533.9119,-97.1516 1383.3225,-92.3254"/>
<polygon fill="#000000" stroke="#000000" points="1383.3231,-88.8238 1373.2176,-92.0064 1383.1021,-95.8203 1383.3231,-88.8238"/>
</g>
<!-- za_ac_tut_web_TransferServlet -->
<g id="node14" class="node">
<title>za_ac_tut_web_TransferServlet</title>
<polygon fill="none" stroke="#000000" points="468.0956,-180 274.0504,-180 274.0504,-144 468.0956,-144 468.0956,-180"/>
<text text-anchor="middle" x="371.073" y="-157.8" font-family="Times,serif" font-size="14.00" fill="#000000">za_ac_tut_web_TransferServlet</text>
</g>
<!-- za_ac_tut_web_TransferServlet&#45;&gt;za_ac_tut_entities_User -->
<g id="edge12" class="edge">
<title>za_ac_tut_web_TransferServlet-&gt;za_ac_tut_entities_User</title>
<path fill="none" stroke="#000000" d="M468.3461,-145.0838C471.2854,-144.7003 474.1995,-144.3376 477.073,-144 744.5532,-112.5767 1063.3689,-98.1487 1212.8153,-92.7268"/>
<polygon fill="#000000" stroke="#000000" points="1212.9777,-96.2233 1222.8458,-92.3673 1212.7268,-89.2278 1212.9777,-96.2233"/>
</g>
<!-- za_ac_tut_web_TransferServlet&#45;&gt;za_ac_tut_entities_Account -->
<g id="edge13" class="edge">
<title>za_ac_tut_web_TransferServlet-&gt;za_ac_tut_entities_Account</title>
<path fill="none" stroke="#000000" d="M392.7303,-143.7623C423.1816,-118.119 478.7351,-71.3372 512.8294,-42.6262"/>
<polygon fill="#000000" stroke="#000000" points="515.1969,-45.2082 520.5916,-36.0896 510.688,-39.8538 515.1969,-45.2082"/>
</g>
<!-- za_ac_tut_web_RegisterServlet -->
<g id="node15" class="node">
<title>za_ac_tut_web_RegisterServlet</title>
<polygon fill="none" stroke="#000000" points="984.8398,-252 791.3062,-252 791.3062,-216 984.8398,-216 984.8398,-252"/>
<text text-anchor="middle" x="888.073" y="-229.8" font-family="Times,serif" font-size="14.00" fill="#000000">za_ac_tut_web_RegisterServlet</text>
</g>
<!-- za_ac_tut_web_RegisterServlet&#45;&gt;za_ac_tut_entities_User -->
<g id="edge16" class="edge">
<title>za_ac_tut_web_RegisterServlet-&gt;za_ac_tut_entities_User</title>
<path fill="none" stroke="#000000" d="M902.1044,-215.7258C920.6433,-192.0854 952.8418,-152.8742 969.073,-144 1009.9653,-121.6428 1129.5932,-106.0455 1212.721,-97.5501"/>
<polygon fill="#000000" stroke="#000000" points="1213.324,-101.0072 1222.9237,-96.5242 1212.6236,-94.0423 1213.324,-101.0072"/>
</g>
<!-- za_ac_tut_web_RegisterServlet&#45;&gt;za_ac_tut_entities_Account -->
<g id="edge17" class="edge">
<title>za_ac_tut_web_RegisterServlet-&gt;za_ac_tut_entities_Account</title>
<path fill="none" stroke="#000000" d="M791.1629,-232.6418C624.9327,-229.2976 299.8587,-217.9312 265.073,-180 201.3286,-110.4914 343.0223,-62.0705 446.323,-37.2433"/>
<polygon fill="#000000" stroke="#000000" points="447.2631,-40.6177 456.1918,-34.9144 445.6553,-33.8048 447.2631,-40.6177"/>
</g>
<!-- za_ac_tut_web_RegisterServlet&#45;&gt;za_ac_tut_business_SendEmail -->
<g id="edge15" class="edge">
<title>za_ac_tut_web_RegisterServlet-&gt;za_ac_tut_business_SendEmail</title>
<path fill="none" stroke="#000000" d="M872.4278,-215.8314C865.2139,-207.454 856.516,-197.3531 848.6125,-188.1749"/>
<polygon fill="#000000" stroke="#000000" points="851.1063,-185.7071 841.9289,-180.4133 845.8019,-190.2748 851.1063,-185.7071"/>
</g>
<!-- za_ac_tut_web_RegisterServlet&#45;&gt;za_ac_tut_business_UserFacadeLocal -->
<g id="edge14" class="edge">
<title>za_ac_tut_web_RegisterServlet-&gt;za_ac_tut_business_UserFacadeLocal</title>
<path fill="none" stroke="#000000" d="M984.7906,-225.2777C1087.7881,-215.705 1255.8296,-199.2753 1410.3596,-180.1885"/>
<polygon fill="#000000" stroke="#000000" points="1411.0252,-183.6328 1420.5178,-178.9275 1410.1628,-176.6861 1411.0252,-183.6328"/>
</g>
<!-- za_ac_tut_web_VerifyCodeServlet -->
<g id="node16" class="node">
<title>za_ac_tut_web_VerifyCodeServlet</title>
<polygon fill="none" stroke="#000000" points="2546.2718,-180 2333.8742,-180 2333.8742,-144 2546.2718,-144 2546.2718,-180"/>
<text text-anchor="middle" x="2440.073" y="-157.8" font-family="Times,serif" font-size="14.00" fill="#000000">za_ac_tut_web_VerifyCodeServlet</text>
</g>
<!-- za_ac_tut_web_VerifyCodeServlet&#45;&gt;za_ac_tut_entities_User -->
<g id="edge18" class="edge">
<title>za_ac_tut_web_VerifyCodeServlet-&gt;za_ac_tut_entities_User</title>
<path fill="none" stroke="#000000" d="M2333.6109,-144.9422C2330.737,-144.6086 2327.8869,-144.2934 2325.073,-144 1977.0632,-107.7122 1560.0335,-95.3374 1383.5921,-91.5292"/>
<polygon fill="#000000" stroke="#000000" points="1383.4086,-88.0246 1373.3366,-91.3117 1383.2601,-95.0231 1383.4086,-88.0246"/>
</g>
<!-- userinfofound_jsp_Servlet_generated -->
<g id="node17" class="node">
<title>userinfofound_jsp_Servlet_generated</title>
<polygon fill="none" stroke="#000000" points="712.003,-180 486.143,-180 486.143,-144 712.003,-144 712.003,-180"/>
<text text-anchor="middle" x="599.073" y="-157.8" font-family="Times,serif" font-size="14.00" fill="#000000">userinfofound_jsp_Servlet_generated</text>
</g>
<!-- userinfofound_jsp_Servlet_generated&#45;&gt;za_ac_tut_entities_User -->
<g id="edge19" class="edge">
<title>userinfofound_jsp_Servlet_generated-&gt;za_ac_tut_entities_User</title>
<path fill="none" stroke="#000000" d="M712.0405,-145.1168C715.0819,-144.7317 718.0971,-144.3585 721.073,-144 895.1879,-123.023 1099.7011,-105.577 1212.4947,-96.5788"/>
<polygon fill="#000000" stroke="#000000" points="1213.0952,-100.0422 1222.7865,-95.7609 1212.5406,-93.0642 1213.0952,-100.0422"/>
</g>
<!-- userinfofound_jsp_Servlet_generated&#45;&gt;za_ac_tut_entities_Account -->
<g id="edge20" class="edge">
<title>userinfofound_jsp_Servlet_generated-&gt;za_ac_tut_entities_Account</title>
<path fill="none" stroke="#000000" d="M591.8539,-143.7623C582.0461,-118.9846 564.4263,-74.4714 552.9956,-45.5939"/>
<polygon fill="#000000" stroke="#000000" points="556.1683,-44.0995 549.2335,-36.0896 549.6597,-46.6759 556.1683,-44.0995"/>
</g>
<!-- viewusers_outcome_jsp_Servlet_generated -->
<g id="node18" class="node">
<title>viewusers_outcome_jsp_Servlet_generated</title>
<polygon fill="none" stroke="#000000" points="2823.1583,-180 2564.9877,-180 2564.9877,-144 2823.1583,-144 2823.1583,-180"/>
<text text-anchor="middle" x="2694.073" y="-157.8" font-family="Times,serif" font-size="14.00" fill="#000000">viewusers_outcome_jsp_Servlet_generated</text>
</g>
<!-- viewusers_outcome_jsp_Servlet_generated&#45;&gt;za_ac_tut_entities_User -->
<g id="edge21" class="edge">
<title>viewusers_outcome_jsp_Servlet_generated-&gt;za_ac_tut_entities_User</title>
<path fill="none" stroke="#000000" d="M2564.6311,-144.8678C2561.4147,-144.5614 2558.2247,-144.2713 2555.073,-144 2115.2764,-106.1476 1586.5196,-94.4063 1383.32,-91.1397"/>
<polygon fill="#000000" stroke="#000000" points="1383.3633,-87.6401 1373.3092,-90.9814 1383.2526,-94.6392 1383.3633,-87.6401"/>
</g>
<!-- viewusers_outcome_jsp_Servlet_generated&#45;&gt;za_ac_tut_entities_Account -->
<g id="edge22" class="edge">
<title>viewusers_outcome_jsp_Servlet_generated-&gt;za_ac_tut_entities_Account</title>
<path fill="none" stroke="#000000" d="M2564.6235,-144.9511C2561.4094,-144.6199 2558.2219,-144.3021 2555.073,-144 1818.7514,-73.3585 926.9364,-33.505 637.62,-21.7293"/>
<polygon fill="#000000" stroke="#000000" points="637.7171,-18.2305 627.5835,-21.3223 637.4334,-25.2247 637.7171,-18.2305"/>
</g>
</g>
</svg>