<?xml version="1.0" encoding="UTF-8" standalone="no"?><!DOCTYPE svg PUBLIC "-//W3C//DTD SVG 1.1//EN" "http://www.w3.org/Graphics/SVG/1.1/DTD/svg11.dtd"><!-- Generated by graphviz version 2.40.1 (20161225.0304)
 --><!-- Title: classgraph Pages: 1 --><svg xmlns="http://www.w3.org/2000/svg" xmlns:xlink="http://www.w3.org/1999/xlink" width="2160pt" height="150pt" viewBox="0.00 0.00 2160.00 149.63">
<g id="graph0" class="graph" transform="scale(.5755 .5755) rotate(0) translate(4 256)">
<title>classgraph</title>
<polygon fill="#ffffff" stroke="transparent" points="-4,4 -4,-256 3749.1355,-256 3749.1355,4 -4,4"/>
<!-- za_ac_tut_entities_User -->
<g id="node1" class="node">
<title>za_ac_tut_entities_User</title>
<polygon fill="#c4cdc8" stroke="#c4cdc8" points="1345.0761,-108 1209.0699,-108 1209.0699,-72 1345.0761,-72 1345.0761,-108"/>
<text text-anchor="middle" x="1277.073" y="-85.8" font-family="Times,serif" font-size="14.00" fill="#000000">za.ac.tut.entities.User</text>
</g>
<!-- za_ac_tut_entities_Account -->
<g id="node2" class="node">
<title>za_ac_tut_entities_Account</title>
<polygon fill="none" stroke="#000000" points="627.5759,-36 456.5701,-36 456.5701,0 627.5759,0 627.5759,-36"/>
<text text-anchor="middle" x="542.073" y="-13.8" font-family="Times,serif" font-size="14.00" fill="#000000">za_ac_tut_entities_Account</text>
</g>
<!-- za_ac_tut_entities_User&#45;&gt;za_ac_tut_entities_Account -->
<g id="edge1" class="edge">
<title>za_ac_tut_entities_User-&gt;za_ac_tut_entities_Account</title>
<path fill="none" stroke="#c4cdc8" d="M1208.915,-83.3233C1077.5011,-70.4501 788.7795,-42.1672 638.0138,-27.3983"/>
<polygon fill="#c4cdc8" stroke="#c4cdc8" points="638.1371,-23.8937 627.8435,-26.402 637.4546,-30.8603 638.1371,-23.8937"/>
</g>
<!-- za_ac_tut_business_AdminFacade -->
<g id="node3" class="node">
<title>za_ac_tut_business_AdminFacade</title>
<polygon fill="#9689ab" stroke="#9689ab" points="2943.6808,-252 2748.4652,-252 2748.4652,-216 2943.6808,-216 2943.6808,-252"/>
<text text-anchor="middle" x="2846.073" y="-229.8" font-family="Times,serif" font-size="14.00" fill="#000000">za.ac.tut.business.AdminFacade</text>
</g>
<!-- za_ac_tut_entities_Admin -->
<g id="node4" class="node">
<title>za_ac_tut_entities_Admin</title>
<polygon fill="#9689ab" stroke="#9689ab" points="2920.5366,-180 2771.6094,-180 2771.6094,-144 2920.5366,-144 2920.5366,-180"/>
<text text-anchor="middle" x="2846.073" y="-157.8" font-family="Times,serif" font-size="14.00" fill="#000000">za.ac.tut.entities.Admin</text>
</g>
<!-- za_ac_tut_business_AdminFacade&#45;&gt;za_ac_tut_entities_Admin -->
<g id="edge2" class="edge">
<title>za_ac_tut_business_AdminFacade-&gt;za_ac_tut_entities_Admin</title>
<path fill="none" stroke="#9689ab" d="M2846.073,-215.8314C2846.073,-208.131 2846.073,-198.9743 2846.073,-190.4166"/>
<polygon fill="#9689ab" stroke="#9689ab" points="2849.5731,-190.4132 2846.073,-180.4133 2842.5731,-190.4133 2849.5731,-190.4132"/>
</g>
<!-- za_ac_tut_business_UserFacade -->
<g id="node5" class="node">
<title>za_ac_tut_business_UserFacade</title>
<polygon fill="#c4cdc8" stroke="#c4cdc8" points="1161.7191,-180 978.4269,-180 978.4269,-144 1161.7191,-144 1161.7191,-180"/>
<text text-anchor="middle" x="1070.073" y="-157.8" font-family="Times,serif" font-size="14.00" fill="#000000">za.ac.tut.business.UserFacade</text>
</g>
<!-- za_ac_tut_business_UserFacade&#45;&gt;za_ac_tut_entities_User -->
<g id="edge3" class="edge">
<title>za_ac_tut_business_UserFacade-&gt;za_ac_tut_entities_User</title>
<path fill="none" stroke="#c4cdc8" d="M1122.0407,-143.9243C1150.4618,-134.0387 1185.8432,-121.7321 1215.6266,-111.3726"/>
<polygon fill="#c4cdc8" stroke="#c4cdc8" points="1216.7888,-114.6742 1225.084,-108.0831 1214.4891,-108.0627 1216.7888,-114.6742"/>
</g>
<!-- za_ac_tut_business_SendEmail -->
<g id="node6" class="node">
<title>za_ac_tut_business_SendEmail</title>
<polygon fill="none" stroke="#000000" points="922.0884,-180 730.0576,-180 730.0576,-144 922.0884,-144 922.0884,-180"/>
<text text-anchor="middle" x="826.073" y="-157.8" font-family="Times,serif" font-size="14.00" fill="#000000">za_ac_tut_business_SendEmail</text>
</g>
<!-- za_ac_tut_business_SendEmail&#45;&gt;za_ac_tut_entities_User -->
<g id="edge4" class="edge">
<title>za_ac_tut_business_SendEmail-&gt;za_ac_tut_entities_User</title>
<path fill="none" stroke="#000000" d="M922.3526,-146.2158C926.9909,-145.4646 931.5833,-144.7228 936.073,-144 1026.177,-129.4936 1129.7285,-113.1405 1198.8563,-102.2691"/>
<polygon fill="#000000" stroke="#000000" points="1199.465,-105.7165 1208.8,-100.7058 1198.3778,-98.8014 1199.465,-105.7165"/>
</g>
<!-- za_ac_tut_business_AccountFacade -->
<g id="node7" class="node">
<title>za_ac_tut_business_AccountFacade</title>
<polygon fill="none" stroke="#000000" points="218.219,-108 -.073,-108 -.073,-72 218.219,-72 218.219,-108"/>
<text text-anchor="middle" x="109.073" y="-85.8" font-family="Times,serif" font-size="14.00" fill="#000000">za_ac_tut_business_AccountFacade</text>
</g>
<!-- za_ac_tut_business_AccountFacade&#45;&gt;za_ac_tut_entities_Account -->
<g id="edge5" class="edge">
<title>za_ac_tut_business_AccountFacade-&gt;za_ac_tut_entities_Account</title>
<path fill="none" stroke="#000000" d="M217.4992,-71.9707C287.7892,-60.2828 378.5204,-45.1958 446.1764,-33.9458"/>
<polygon fill="#000000" stroke="#000000" points="447.117,-37.3376 456.4074,-32.2446 445.9687,-30.4324 447.117,-37.3376"/>
</g>
<!-- za_ac_tut_web_DeleteUserServlet -->
<g id="node8" class="node">
<title>za_ac_tut_web_DeleteUserServlet</title>
<polygon fill="#c4cdc8" stroke="#c4cdc8" points="1374.6459,-180 1179.5001,-180 1179.5001,-144 1374.6459,-144 1374.6459,-180"/>
<text text-anchor="middle" x="1277.073" y="-157.8" font-family="Times,serif" font-size="14.00" fill="#000000">za.ac.tut.web.DeleteUserServlet</text>
</g>
<!-- za_ac_tut_web_DeleteUserServlet&#45;&gt;za_ac_tut_entities_User -->
<g id="edge6" class="edge">
<title>za_ac_tut_web_DeleteUserServlet-&gt;za_ac_tut_entities_User</title>
<path fill="none" stroke="#c4cdc8" d="M1277.073,-143.8314C1277.073,-136.131 1277.073,-126.9743 1277.073,-118.4166"/>
<polygon fill="#c4cdc8" stroke="#c4cdc8" points="1280.5731,-118.4132 1277.073,-108.4133 1273.5731,-118.4133 1280.5731,-118.4132"/>
</g>
<!-- za_ac_tut_web_EditUserServlet -->
<g id="node9" class="node">
<title>za_ac_tut_web_EditUserServlet</title>
<polygon fill="#c4cdc8" stroke="#c4cdc8" points="1808.448,-180 1625.698,-180 1625.698,-144 1808.448,-144 1808.448,-180"/>
<text text-anchor="middle" x="1717.073" y="-157.8" font-family="Times,serif" font-size="14.00" fill="#000000">za.ac.tut.web.EditUserServlet</text>
</g>
<!-- za_ac_tut_web_EditUserServlet&#45;&gt;za_ac_tut_entities_User -->
<g id="edge7" class="edge">
<title>za_ac_tut_web_EditUserServlet-&gt;za_ac_tut_entities_User</title>
<path fill="none" stroke="#c4cdc8" d="M1625.8009,-145.4911C1622.858,-144.9843 1619.9427,-144.4861 1617.073,-144 1527.348,-128.8012 1424.0785,-112.5793 1355.1168,-101.928"/>
<polygon fill="#c4cdc8" stroke="#c4cdc8" points="1355.6136,-98.4633 1345.1968,-100.3977 1354.5463,-105.3815 1355.6136,-98.4633"/>
</g>
<!-- za_ac_tut_web_FindUserServlet -->
<g id="node10" class="node">
<title>za_ac_tut_web_FindUserServlet</title>
<polygon fill="#c4cdc8" stroke="#c4cdc8" points="2048.2872,-180 1863.8588,-180 1863.8588,-144 2048.2872,-144 2048.2872,-180"/>
<text text-anchor="middle" x="1956.073" y="-157.8" font-family="Times,serif" font-size="14.00" fill="#000000">za.ac.tut.web.FindUserServlet</text>
</g>
<!-- za_ac_tut_web_FindUserServlet&#45;&gt;za_ac_tut_entities_User -->
<g id="edge8" class="edge">
<title>za_ac_tut_web_FindUserServlet-&gt;za_ac_tut_entities_User</title>
<path fill="none" stroke="#c4cdc8" d="M1863.6364,-145.8877C1859.0548,-145.2195 1854.5145,-144.5856 1850.073,-144 1673.7961,-120.7595 1465.7277,-103.7371 1355.2341,-95.5174"/>
<polygon fill="#c4cdc8" stroke="#c4cdc8" points="1355.4059,-92.0207 1345.175,-94.7734 1354.8895,-99.0016 1355.4059,-92.0207"/>
</g>
<!-- za_ac_tut_web_EditProfileServlet -->
<g id="node11" class="node">
<title>za_ac_tut_web_EditProfileServlet</title>
<polygon fill="none" stroke="#000000" points="1772.1208,-252 1564.0252,-252 1564.0252,-216 1772.1208,-216 1772.1208,-252"/>
<text text-anchor="middle" x="1668.073" y="-229.8" font-family="Times,serif" font-size="14.00" fill="#000000">za_ac_tut_web_EditProfileServlet</text>
</g>
<!-- za_ac_tut_web_EditProfileServlet&#45;&gt;za_ac_tut_entities_User -->
<g id="edge10" class="edge">
<title>za_ac_tut_web_EditProfileServlet-&gt;za_ac_tut_entities_User</title>
<path fill="none" stroke="#000000" d="M1745.4446,-215.9216C1795.4792,-200.7097 1846.2738,-176.2665 1817.073,-144 1786.7163,-110.4563 1497.9442,-96.8494 1355.6058,-92.1453"/>
<polygon fill="#000000" stroke="#000000" points="1355.3092,-88.6339 1345.2012,-91.8086 1355.0828,-95.6303 1355.3092,-88.6339"/>
</g>
<!-- za_ac_tut_business_UserFacadeLocal -->
<g id="node12" class="node">
<title>za_ac_tut_business_UserFacadeLocal</title>
<polygon fill="#c4cdc8" stroke="#c4cdc8" points="1607.5914,-180 1392.5546,-180 1392.5546,-144 1607.5914,-144 1607.5914,-180"/>
<text text-anchor="middle" x="1500.073" y="-157.8" font-family="Times,serif" font-size="14.00" fill="#000000">za.ac.tut.business.UserFacadeLocal</text>
</g>
<!-- za_ac_tut_web_EditProfileServlet&#45;&gt;za_ac_tut_business_UserFacadeLocal -->
<g id="edge9" class="edge">
<title>za_ac_tut_web_EditProfileServlet-&gt;za_ac_tut_business_UserFacadeLocal</title>
<path fill="none" stroke="#000000" d="M1625.6795,-215.8314C1603.1106,-206.159 1575.1809,-194.1891 1551.3934,-183.9944"/>
<polygon fill="#000000" stroke="#000000" points="1552.7318,-180.7602 1542.1616,-180.038 1549.9744,-187.1943 1552.7318,-180.7602"/>
</g>
<!-- za_ac_tut_web_LoginServlet -->
<g id="node13" class="node">
<title>za_ac_tut_web_LoginServlet</title>
<polygon fill="none" stroke="#000000" points="2246.1306,-180 2066.0154,-180 2066.0154,-144 2246.1306,-144 2246.1306,-180"/>
<text text-anchor="middle" x="2156.073" y="-157.8" font-family="Times,serif" font-size="14.00" fill="#000000">za_ac_tut_web_LoginServlet</text>
</g>
<!-- za_ac_tut_web_LoginServlet&#45;&gt;za_ac_tut_entities_User -->
<g id="edge11" class="edge">
<title>za_ac_tut_web_LoginServlet-&gt;za_ac_tut_entities_User</title>
<path fill="none" stroke="#000000" d="M2066.03,-145.1918C2063.0118,-144.7679 2060.0198,-144.3687 2057.073,-144 1801.4961,-112.0186 1496.2612,-97.7798 1355.3975,-92.552"/>
<polygon fill="#000000" stroke="#000000" points="1355.2557,-89.0446 1345.1343,-92.1763 1354.9996,-96.0399 1355.2557,-89.0446"/>
</g>
<!-- za_ac_tut_web_TransferServlet -->
<g id="node14" class="node">
<title>za_ac_tut_web_TransferServlet</title>
<polygon fill="none" stroke="#000000" points="468.0956,-180 274.0504,-180 274.0504,-144 468.0956,-144 468.0956,-180"/>
<text text-anchor="middle" x="371.073" y="-157.8" font-family="Times,serif" font-size="14.00" fill="#000000">za_ac_tut_web_TransferServlet</text>
</g>
<!-- za_ac_tut_web_TransferServlet&#45;&gt;za_ac_tut_entities_User -->
<g id="edge12" class="edge">
<title>za_ac_tut_web_TransferServlet-&gt;za_ac_tut_entities_User</title>
<path fill="none" stroke="#000000" d="M468.3468,-145.0903C471.2859,-144.7049 474.1998,-144.34 477.073,-144 740.6608,-112.8043 1055.4029,-98.1221 1198.8708,-92.6603"/>
<polygon fill="#000000" stroke="#000000" points="1199.0402,-96.1565 1208.9015,-92.2828 1198.7769,-89.1614 1199.0402,-96.1565"/>
</g>
<!-- za_ac_tut_web_TransferServlet&#45;&gt;za_ac_tut_entities_Account -->
<g id="edge13" class="edge">
<title>za_ac_tut_web_TransferServlet-&gt;za_ac_tut_entities_Account</title>
<path fill="none" stroke="#000000" d="M392.7303,-143.7623C423.1816,-118.119 478.7351,-71.3372 512.8294,-42.6262"/>
<polygon fill="#000000" stroke="#000000" points="515.1969,-45.2082 520.5916,-36.0896 510.688,-39.8538 515.1969,-45.2082"/>
</g>
<!-- za_ac_tut_web_RegisterServlet -->
<g id="node15" class="node">
<title>za_ac_tut_web_RegisterServlet</title>
<polygon fill="#c9a58e" stroke="#c9a58e" points="977.8398,-252 798.3062,-252 798.3062,-216 977.8398,-216 977.8398,-252"/>
<text text-anchor="middle" x="888.073" y="-229.8" font-family="Times,serif" font-size="14.00" fill="#000000">za.ac.tut.web.RegisterServlet</text>
</g>
<!-- za_ac_tut_web_RegisterServlet&#45;&gt;za_ac_tut_entities_User -->
<g id="edge16" class="edge">
<title>za_ac_tut_web_RegisterServlet-&gt;za_ac_tut_entities_User</title>
<path fill="none" stroke="#c9a58e" d="M902.1186,-215.7517C920.6736,-192.1405 952.8903,-152.9623 969.073,-144 1007.5354,-122.6988 1120.6305,-106.7348 1198.5163,-97.8818"/>
<polygon fill="#c9a58e" stroke="#c9a58e" points="1199.2356,-101.3232 1208.7842,-96.7325 1198.4569,-94.3666 1199.2356,-101.3232"/>
</g>
<!-- za_ac_tut_web_RegisterServlet&#45;&gt;za_ac_tut_entities_Account -->
<g id="edge17" class="edge">
<title>za_ac_tut_web_RegisterServlet-&gt;za_ac_tut_entities_Account</title>
<path fill="none" stroke="#c9a58e" d="M798.2935,-232.7823C634.4224,-229.6217 300.3632,-218.4813 265.073,-180 201.3286,-110.4914 343.0223,-62.0705 446.323,-37.2433"/>
<polygon fill="#c9a58e" stroke="#c9a58e" points="447.2631,-40.6177 456.1918,-34.9144 445.6553,-33.8048 447.2631,-40.6177"/>
</g>
<!-- za_ac_tut_web_RegisterServlet&#45;&gt;za_ac_tut_business_SendEmail -->
<g id="edge15" class="edge">
<title>za_ac_tut_web_RegisterServlet-&gt;za_ac_tut_business_SendEmail</title>
<path fill="none" stroke="#c9a58e" d="M872.4278,-215.8314C865.2139,-207.454 856.516,-197.3531 848.6125,-188.1749"/>
<polygon fill="#c9a58e" stroke="#c9a58e" points="851.1063,-185.7071 841.9289,-180.4133 845.8019,-190.2748 851.1063,-185.7071"/>
</g>
<!-- za_ac_tut_web_RegisterServlet&#45;&gt;za_ac_tut_business_UserFacadeLocal -->
<g id="edge14" class="edge">
<title>za_ac_tut_web_RegisterServlet-&gt;za_ac_tut_business_UserFacadeLocal</title>
<path fill="none" stroke="#c9a58e" d="M977.824,-225.4685C1075.0543,-215.9439 1234.9953,-199.4582 1382.2219,-180.2169"/>
<polygon fill="#c9a58e" stroke="#c9a58e" points="1382.8906,-183.6592 1392.3494,-178.8862 1381.9786,-176.7188 1382.8906,-183.6592"/>
</g>
<!-- za_ac_tut_web_VerifyCodeServlet -->
<g id="node16" class="node">
<title>za_ac_tut_web_VerifyCodeServlet</title>
<polygon fill="none" stroke="#000000" points="2476.2718,-180 2263.8742,-180 2263.8742,-144 2476.2718,-144 2476.2718,-180"/>
<text text-anchor="middle" x="2370.073" y="-157.8" font-family="Times,serif" font-size="14.00" fill="#000000">za_ac_tut_web_VerifyCodeServlet</text>
</g>
<!-- za_ac_tut_web_VerifyCodeServlet&#45;&gt;za_ac_tut_entities_User -->
<g id="edge18" class="edge">
<title>za_ac_tut_web_VerifyCodeServlet-&gt;za_ac_tut_entities_User</title>
<path fill="none" stroke="#000000" d="M2263.6098,-144.9521C2260.7363,-144.6156 2257.8865,-144.2971 2255.073,-144 1921.5116,-108.7758 1521.3679,-95.774 1355.2637,-91.6614"/>
<polygon fill="#000000" stroke="#000000" points="1355.2233,-88.1595 1345.141,-91.4146 1355.0527,-95.1574 1355.2233,-88.1595"/>
</g>
<!-- userinfofound_jsp_Servlet_generated -->
<g id="node17" class="node">
<title>userinfofound_jsp_Servlet_generated</title>
<polygon fill="none" stroke="#000000" points="712.003,-180 486.143,-180 486.143,-144 712.003,-144 712.003,-180"/>
<text text-anchor="middle" x="599.073" y="-157.8" font-family="Times,serif" font-size="14.00" fill="#000000">userinfofound_jsp_Servlet_generated</text>
</g>
<!-- userinfofound_jsp_Servlet_generated&#45;&gt;za_ac_tut_entities_User -->
<g id="edge19" class="edge">
<title>userinfofound_jsp_Servlet_generated-&gt;za_ac_tut_entities_User</title>
<path fill="none" stroke="#000000" d="M712.0422,-145.1307C715.0831,-144.7415 718.0978,-144.3637 721.073,-144 891.0338,-123.2214 1091.0179,-105.4189 1198.773,-96.3705"/>
<polygon fill="#000000" stroke="#000000" points="1199.2356,-99.8441 1208.9089,-95.5224 1198.6519,-92.8685 1199.2356,-99.8441"/>
</g>
<!-- userinfofound_jsp_Servlet_generated&#45;&gt;za_ac_tut_entities_Account -->
<g id="edge20" class="edge">
<title>userinfofound_jsp_Servlet_generated-&gt;za_ac_tut_entities_Account</title>
<path fill="none" stroke="#000000" d="M591.8539,-143.7623C582.0461,-118.9846 564.4263,-74.4714 552.9956,-45.5939"/>
<polygon fill="#000000" stroke="#000000" points="556.1683,-44.0995 549.2335,-36.0896 549.6597,-46.6759 556.1683,-44.0995"/>
</g>
<!-- viewusers_outcome_jsp_Servlet_generated -->
<g id="node18" class="node">
<title>viewusers_outcome_jsp_Servlet_generated</title>
<polygon fill="none" stroke="#000000" points="2753.1583,-180 2494.9877,-180 2494.9877,-144 2753.1583,-144 2753.1583,-180"/>
<text text-anchor="middle" x="2624.073" y="-157.8" font-family="Times,serif" font-size="14.00" fill="#000000">viewusers_outcome_jsp_Servlet_generated</text>
</g>
<!-- viewusers_outcome_jsp_Servlet_generated&#45;&gt;za_ac_tut_entities_User -->
<g id="edge21" class="edge">
<title>viewusers_outcome_jsp_Servlet_generated-&gt;za_ac_tut_entities_User</title>
<path fill="none" stroke="#000000" d="M2494.6305,-144.8752C2491.4143,-144.5666 2488.2245,-144.274 2485.073,-144 2059.7577,-107.0214 1547.8703,-94.7168 1355.3441,-91.2201"/>
<polygon fill="#000000" stroke="#000000" points="1355.3797,-87.7202 1345.3187,-91.0407 1355.2545,-94.7191 1355.3797,-87.7202"/>
</g>
<!-- viewusers_outcome_jsp_Servlet_generated&#45;&gt;za_ac_tut_entities_Account -->
<g id="edge22" class="edge">
<title>viewusers_outcome_jsp_Servlet_generated-&gt;za_ac_tut_entities_Account</title>
<path fill="none" stroke="#000000" d="M2494.6226,-144.9607C2491.4088,-144.6266 2488.2215,-144.3056 2485.073,-144 1777.5907,-75.3234 921.4359,-34.4573 638.1734,-22.0501"/>
<polygon fill="#000000" stroke="#000000" points="638.0788,-18.5428 627.9356,-21.6032 637.7734,-25.5361 638.0788,-18.5428"/>
</g>
<!-- za_ac_tut_entities_Admin_ -->
<g id="node19" class="node">
<title>za_ac_tut_entities_Admin_</title>
<polygon fill="#9689ab" stroke="#9689ab" points="3118.0366,-252 2962.1094,-252 2962.1094,-216 3118.0366,-216 3118.0366,-252"/>
<text text-anchor="middle" x="3040.073" y="-229.8" font-family="Times,serif" font-size="14.00" fill="#000000">za.ac.tut.entities.Admin_</text>
</g>
<!-- za_ac_tut_entities_User_ -->
<g id="node20" class="node">
<title>za_ac_tut_entities_User_</title>
<polygon fill="#c4cdc8" stroke="#c4cdc8" points="3279.5761,-252 3136.5699,-252 3136.5699,-216 3279.5761,-216 3279.5761,-252"/>
<text text-anchor="middle" x="3208.073" y="-229.8" font-family="Times,serif" font-size="14.00" fill="#000000">za.ac.tut.entities.User_</text>
</g>
<!-- za_ac_tut_web_CreateInvoiceServlet -->
<g id="node21" class="node">
<title>za_ac_tut_web_CreateInvoiceServlet</title>
<polygon fill="none" stroke="#000000" points="3508.6994,-252 3297.4466,-252 3297.4466,-216 3508.6994,-216 3508.6994,-252"/>
<text text-anchor="middle" x="3403.073" y="-229.8" font-family="Times,serif" font-size="14.00" fill="#000000">za.ac.tut.web.CreateInvoiceServlet</text>
</g>
<!-- za_ac_tut_web_EndDeleteUserServlet -->
<g id="node22" class="node">
<title>za_ac_tut_web_EndDeleteUserServlet</title>
<polygon fill="#c4cdc8" stroke="#c4cdc8" points="3745.198,-252 3526.948,-252 3526.948,-216 3745.198,-216 3745.198,-252"/>
<text text-anchor="middle" x="3636.073" y="-229.8" font-family="Times,serif" font-size="14.00" fill="#000000">za.ac.tut.web.EndDeleteUserServlet</text>
</g>
</g>
</svg>