<?xml version="1.0" encoding="UTF-8" standalone="no"?><!DOCTYPE svg PUBLIC "-//W3C//DTD SVG 1.1//EN" "http://www.w3.org/Graphics/SVG/1.1/DTD/svg11.dtd"><!-- Generated by graphviz version 2.40.1 (20161225.0304)
 --><!-- Title: callgraph Pages: 1 --><svg xmlns="http://www.w3.org/2000/svg" xmlns:xlink="http://www.w3.org/1999/xlink" width="1007pt" height="1124pt" viewBox="0.00 0.00 1007.39 1124.00">
<g id="graph0" class="graph" transform="scale(1 1) rotate(0) translate(4 1120)">
<title>callgraph</title>
<polygon fill="#ffffff" stroke="transparent" points="-4,4 -4,-1120 1003.389,-1120 1003.389,4 -4,4"/>
<!-- za_ac_tut_web_RegisterServlet_doPost_1_ -->
<g id="node1" class="node">
<title>za_ac_tut_web_RegisterServlet_doPost_1_</title>
<polygon fill="none" stroke="#000000" points="237.3085,-819 -.1029,-819 -.1029,-783 237.3085,-783 237.3085,-819"/>
<text text-anchor="middle" x="118.6028" y="-796.8" font-family="Times,serif" font-size="14.00" fill="#000000">za.ac.tut.web.RegisterServlet.doPost[1]</text>
</g>
<!-- unresolved_javax_servlet_http_HttpServletRequest_getSession -->
<g id="node2" class="node">
<title>unresolved_javax_servlet_http_HttpServletRequest_getSession</title>
<polygon fill="none" stroke="#ff0000" points="659.0713,-1116 304.5575,-1116 304.5575,-1080 659.0713,-1080 659.0713,-1116"/>
<text text-anchor="middle" x="481.8144" y="-1093.8" font-family="Times,serif" font-size="14.00" fill="#000000">unresolved:javax.servlet.http.HttpServletRequest.getSession</text>
</g>
<!-- za_ac_tut_web_RegisterServlet_doPost_1_&#45;&gt;unresolved_javax_servlet_http_HttpServletRequest_getSession -->
<g id="edge1" class="edge">
<title>za_ac_tut_web_RegisterServlet_doPost_1_-&gt;unresolved_javax_servlet_http_HttpServletRequest_getSession</title>
<path fill="none" stroke="#000000" d="M123.0222,-819.3269C136.1281,-869.3262 179.831,-1008.5157 273.2056,-1071 280.1103,-1075.6205 287.4353,-1079.633 295.0513,-1083.109"/>
<polygon fill="#000000" stroke="#000000" points="293.9028,-1086.4232 304.4768,-1087.0878 296.6251,-1079.9743 293.9028,-1086.4232"/>
</g>
<!-- unresolved_javax_servlet_http_HttpServletRequest_getParameter -->
<g id="node3" class="node">
<title>unresolved_javax_servlet_http_HttpServletRequest_getParameter</title>
<polygon fill="none" stroke="#ff0000" points="666.0377,-1062 297.5911,-1062 297.5911,-1026 666.0377,-1026 666.0377,-1062"/>
<text text-anchor="middle" x="481.8144" y="-1039.8" font-family="Times,serif" font-size="14.00" fill="#000000">unresolved:javax.servlet.http.HttpServletRequest.getParameter</text>
</g>
<!-- za_ac_tut_web_RegisterServlet_doPost_1_&#45;&gt;unresolved_javax_servlet_http_HttpServletRequest_getParameter -->
<g id="edge2" class="edge">
<title>za_ac_tut_web_RegisterServlet_doPost_1_-&gt;unresolved_javax_servlet_http_HttpServletRequest_getParameter</title>
<path fill="none" stroke="#000000" d="M125.5372,-819.0763C142.9746,-861.8085 193.0677,-969.0561 273.2056,-1017 278.0533,-1019.9002 283.0768,-1022.5485 288.2372,-1024.9648"/>
<polygon fill="#000000" stroke="#000000" points="287.0993,-1028.2866 297.6653,-1029.0677 289.8926,-1021.868 287.0993,-1028.2866"/>
</g>
<!-- unresolved__unknown__parseDouble -->
<g id="node4" class="node">
<title>unresolved__unknown__parseDouble</title>
<polygon fill="none" stroke="#ff0000" points="593.7725,-1008 369.8563,-1008 369.8563,-972 593.7725,-972 593.7725,-1008"/>
<text text-anchor="middle" x="481.8144" y="-985.8" font-family="Times,serif" font-size="14.00" fill="#000000">unresolved:&lt;unknown&gt;.parseDouble</text>
</g>
<!-- za_ac_tut_web_RegisterServlet_doPost_1_&#45;&gt;unresolved__unknown__parseDouble -->
<g id="edge3" class="edge">
<title>za_ac_tut_web_RegisterServlet_doPost_1_-&gt;unresolved__unknown__parseDouble</title>
<path fill="none" stroke="#000000" d="M129.7476,-819.1761C152.1071,-853.8515 206.0921,-929.0153 273.2056,-963 299.6959,-976.4141 330.4028,-984.0309 359.9756,-988.1798"/>
<polygon fill="#000000" stroke="#000000" points="359.5899,-991.6589 369.9534,-989.4573 360.4789,-984.7156 359.5899,-991.6589"/>
</g>
<!-- za_ac_tut_business_SendEmail_ctor_____ -->
<g id="node5" class="node">
<title>za_ac_tut_business_SendEmail_ctor_____</title>
<polygon fill="none" stroke="#000000" points="593.4166,-954 370.2122,-954 370.2122,-918 593.4166,-918 593.4166,-954"/>
<text text-anchor="middle" x="481.8144" y="-931.8" font-family="Times,serif" font-size="14.00" fill="#000000">za.ac.tut.business.SendEmail.ctor(...)</text>
</g>
<!-- za_ac_tut_web_RegisterServlet_doPost_1_&#45;&gt;za_ac_tut_business_SendEmail_ctor_____ -->
<g id="edge4" class="edge">
<title>za_ac_tut_web_RegisterServlet_doPost_1_-&gt;za_ac_tut_business_SendEmail_ctor_____</title>
<path fill="none" stroke="#000000" d="M137.7771,-819.1109C165.3409,-843.9692 218.8541,-887.9667 273.2056,-909 300.32,-919.4929 330.7453,-926.0707 359.7998,-930.1538"/>
<polygon fill="#000000" stroke="#000000" points="359.641,-933.6629 370.0119,-931.4963 360.5534,-926.7226 359.641,-933.6629"/>
</g>
<!-- za_ac_tut_business_SendEmail_getUniqueRandonNum_1_ -->
<g id="node6" class="node">
<title>za_ac_tut_business_SendEmail_getUniqueRandonNum_1_</title>
<polygon fill="none" stroke="#000000" points="646.0159,-900 317.6129,-900 317.6129,-864 646.0159,-864 646.0159,-900"/>
<text text-anchor="middle" x="481.8144" y="-877.8" font-family="Times,serif" font-size="14.00" fill="#000000">za.ac.tut.business.SendEmail.getUniqueRandonNum[1]</text>
</g>
<!-- za_ac_tut_web_RegisterServlet_doPost_1_&#45;&gt;za_ac_tut_business_SendEmail_getUniqueRandonNum_1_ -->
<g id="edge5" class="edge">
<title>za_ac_tut_web_RegisterServlet_doPost_1_-&gt;za_ac_tut_business_SendEmail_getUniqueRandonNum_1_</title>
<path fill="none" stroke="#000000" d="M162.5282,-819.0834C193.0825,-830.9788 235.0255,-845.9647 273.2056,-855 284.3804,-857.6445 295.9575,-860.0467 307.6693,-862.2263"/>
<polygon fill="#000000" stroke="#000000" points="307.0706,-865.6747 317.5331,-864.0052 308.3131,-858.7858 307.0706,-865.6747"/>
</g>
<!-- unresolved_javax_servlet_http_HttpSession_setAttribute -->
<g id="node7" class="node">
<title>unresolved_javax_servlet_http_HttpSession_setAttribute</title>
<polygon fill="none" stroke="#ff0000" points="641.3058,-846 322.323,-846 322.323,-810 641.3058,-810 641.3058,-846"/>
<text text-anchor="middle" x="481.8144" y="-823.8" font-family="Times,serif" font-size="14.00" fill="#000000">unresolved:javax.servlet.http.HttpSession.setAttribute</text>
</g>
<!-- za_ac_tut_web_RegisterServlet_doPost_1_&#45;&gt;unresolved_javax_servlet_http_HttpSession_setAttribute -->
<g id="edge6" class="edge">
<title>za_ac_tut_web_RegisterServlet_doPost_1_-&gt;unresolved_javax_servlet_http_HttpSession_setAttribute</title>
<path fill="none" stroke="#000000" d="M237.2805,-809.8221C261.3057,-811.6081 287.0076,-813.5187 312.3906,-815.4056"/>
<polygon fill="#000000" stroke="#000000" points="312.2454,-818.9043 322.4774,-816.1554 312.7644,-811.9236 312.2454,-818.9043"/>
</g>
<!-- unresolved_String_equals -->
<g id="node8" class="node">
<title>unresolved_String_equals</title>
<polygon fill="none" stroke="#ff0000" points="559.1189,-792 404.5099,-792 404.5099,-756 559.1189,-756 559.1189,-792"/>
<text text-anchor="middle" x="481.8144" y="-769.8" font-family="Times,serif" font-size="14.00" fill="#000000">unresolved:String.equals</text>
</g>
<!-- za_ac_tut_web_RegisterServlet_doPost_1_&#45;&gt;unresolved_String_equals -->
<g id="edge7" class="edge">
<title>za_ac_tut_web_RegisterServlet_doPost_1_-&gt;unresolved_String_equals</title>
<path fill="none" stroke="#000000" d="M237.2805,-792.1779C288.3742,-788.3797 347.0509,-784.0179 394.1177,-780.5191"/>
<polygon fill="#000000" stroke="#000000" points="394.5702,-783.9952 404.2832,-779.7634 394.0512,-777.0145 394.5702,-783.9952"/>
</g>
<!-- za_ac_tut_business_SendEmail_getRandom_1_ -->
<g id="node9" class="node">
<title>za_ac_tut_business_SendEmail_getRandom_1_</title>
<polygon fill="none" stroke="#000000" points="613.1974,-738 350.4314,-738 350.4314,-702 613.1974,-702 613.1974,-738"/>
<text text-anchor="middle" x="481.8144" y="-715.8" font-family="Times,serif" font-size="14.00" fill="#000000">za.ac.tut.business.SendEmail.getRandom[1]</text>
</g>
<!-- za_ac_tut_web_RegisterServlet_doPost_1_&#45;&gt;za_ac_tut_business_SendEmail_getRandom_1_ -->
<g id="edge8" class="edge">
<title>za_ac_tut_web_RegisterServlet_doPost_1_-&gt;za_ac_tut_business_SendEmail_getRandom_1_</title>
<path fill="none" stroke="#000000" d="M162.5282,-782.9166C193.0825,-771.0212 235.0255,-756.0353 273.2056,-747 294.7203,-741.9086 317.7258,-737.7152 340.3138,-734.28"/>
<polygon fill="#000000" stroke="#000000" points="340.9266,-737.7275 350.3081,-732.8043 339.9041,-730.8026 340.9266,-737.7275"/>
</g>
<!-- za_ac_tut_web_RegisterServlet_createUser_1_ -->
<g id="node10" class="node">
<title>za_ac_tut_web_RegisterServlet_createUser_1_</title>
<polygon fill="none" stroke="#000000" points="611.2382,-522 352.3906,-522 352.3906,-486 611.2382,-486 611.2382,-522"/>
<text text-anchor="middle" x="481.8144" y="-499.8" font-family="Times,serif" font-size="14.00" fill="#000000">za.ac.tut.web.RegisterServlet.createUser[1]</text>
</g>
<!-- za_ac_tut_web_RegisterServlet_doPost_1_&#45;&gt;za_ac_tut_web_RegisterServlet_createUser_1_ -->
<g id="edge9" class="edge">
<title>za_ac_tut_web_RegisterServlet_doPost_1_-&gt;za_ac_tut_web_RegisterServlet_createUser_1_</title>
<path fill="none" stroke="#000000" d="M140.7766,-782.8684C203.213,-731.8138 380.5678,-586.7898 451.7278,-528.602"/>
<polygon fill="#000000" stroke="#000000" points="453.9435,-531.3114 459.4693,-522.2717 449.5124,-525.8924 453.9435,-531.3114"/>
</g>
<!-- za_ac_tut_business_UserFacade_addUser_1_ -->
<g id="node11" class="node">
<title>za_ac_tut_business_UserFacade_addUser_1_</title>
<polygon fill="none" stroke="#000000" points="606.4229,-468 357.2059,-468 357.2059,-432 606.4229,-432 606.4229,-468"/>
<text text-anchor="middle" x="481.8144" y="-445.8" font-family="Times,serif" font-size="14.00" fill="#000000">za.ac.tut.business.UserFacade.addUser[1]</text>
</g>
<!-- za_ac_tut_web_RegisterServlet_doPost_1_&#45;&gt;za_ac_tut_business_UserFacade_addUser_1_ -->
<g id="edge10" class="edge">
<title>za_ac_tut_web_RegisterServlet_doPost_1_-&gt;za_ac_tut_business_UserFacade_addUser_1_</title>
<path fill="none" stroke="#000000" d="M121.1884,-782.8465C130.2352,-726.6589 165.9666,-554.7218 273.2056,-477 294.6403,-461.4651 320.6624,-452.5631 346.9553,-447.7832"/>
<polygon fill="#000000" stroke="#000000" points="347.726,-451.204 357.0365,-446.1479 346.6051,-444.2943 347.726,-451.204"/>
</g>
<!-- unresolved_javax_servlet_http_HttpServletRequest_getRequestDispatcher -->
<g id="node12" class="node">
<title>unresolved_javax_servlet_http_HttpServletRequest_getRequestDispatcher</title>
<polygon fill="none" stroke="#ff0000" points="690.5321,-414 273.0967,-414 273.0967,-378 690.5321,-378 690.5321,-414"/>
<text text-anchor="middle" x="481.8144" y="-391.8" font-family="Times,serif" font-size="14.00" fill="#000000">unresolved:javax.servlet.http.HttpServletRequest.getRequestDispatcher</text>
</g>
<!-- za_ac_tut_web_RegisterServlet_doPost_1_&#45;&gt;unresolved_javax_servlet_http_HttpServletRequest_getRequestDispatcher -->
<g id="edge11" class="edge">
<title>za_ac_tut_web_RegisterServlet_doPost_1_-&gt;unresolved_javax_servlet_http_HttpServletRequest_getRequestDispatcher</title>
<path fill="none" stroke="#000000" d="M119.893,-782.6057C125.3296,-720.3331 152.0921,-516.1523 273.2056,-423 274.6484,-421.8903 276.1142,-420.8135 277.6014,-419.7689"/>
<polygon fill="#000000" stroke="#000000" points="279.8364,-422.4922 286.3435,-414.1311 276.0426,-416.6094 279.8364,-422.4922"/>
</g>
<!-- unresolved_javax_servlet_RequestDispatcher_forward -->
<g id="node13" class="node">
<title>unresolved_javax_servlet_RequestDispatcher_forward</title>
<polygon fill="none" stroke="#ff0000" points="636.8066,-360 326.8222,-360 326.8222,-324 636.8066,-324 636.8066,-360"/>
<text text-anchor="middle" x="481.8144" y="-337.8" font-family="Times,serif" font-size="14.00" fill="#000000">unresolved:javax.servlet.RequestDispatcher.forward</text>
</g>
<!-- za_ac_tut_web_RegisterServlet_doPost_1_&#45;&gt;unresolved_javax_servlet_RequestDispatcher_forward -->
<g id="edge12" class="edge">
<title>za_ac_tut_web_RegisterServlet_doPost_1_-&gt;unresolved_javax_servlet_RequestDispatcher_forward</title>
<path fill="none" stroke="#000000" d="M122.4703,-782.8458C138.7967,-707.9607 204.4141,-424.3925 273.2056,-369 286.1609,-358.5681 301.1097,-350.9936 316.9325,-345.5899"/>
<polygon fill="#000000" stroke="#000000" points="318.3746,-348.807 326.8874,-342.4997 316.2993,-342.1217 318.3746,-348.807"/>
</g>
<!-- unresolved_HashSet_Integer__size -->
<g id="node14" class="node">
<title>unresolved_HashSet_Integer__size</title>
<polygon fill="none" stroke="#ff0000" points="967.0702,-1008 758.742,-1008 758.742,-972 967.0702,-972 967.0702,-1008"/>
<text text-anchor="middle" x="862.9061" y="-985.8" font-family="Times,serif" font-size="14.00" fill="#000000">unresolved:HashSet&lt;Integer&gt;.size</text>
</g>
<!-- za_ac_tut_business_SendEmail_getUniqueRandonNum_1_&#45;&gt;unresolved_HashSet_Integer__size -->
<g id="edge13" class="edge">
<title>za_ac_tut_business_SendEmail_getUniqueRandonNum_1_-&gt;unresolved_HashSet_Integer__size</title>
<path fill="none" stroke="#000000" d="M645.9707,-889.4402C661.6527,-894.1617 676.7731,-900.5226 690.4232,-909 714.9266,-924.2178 702.44,-946.9749 726.4232,-963 733.4242,-967.6779 741.0492,-971.5825 748.9985,-974.8376"/>
<polygon fill="#000000" stroke="#000000" points="747.8686,-978.1516 758.4612,-978.3678 750.3154,-971.5932 747.8686,-978.1516"/>
</g>
<!-- unresolved_java_util_Random_nextInt -->
<g id="node15" class="node">
<title>unresolved_java_util_Random_nextInt</title>
<polygon fill="none" stroke="#ff0000" points="973.3115,-900 752.5007,-900 752.5007,-864 973.3115,-864 973.3115,-900"/>
<text text-anchor="middle" x="862.9061" y="-877.8" font-family="Times,serif" font-size="14.00" fill="#000000">unresolved:java.util.Random.nextInt</text>
</g>
<!-- za_ac_tut_business_SendEmail_getUniqueRandonNum_1_&#45;&gt;unresolved_java_util_Random_nextInt -->
<g id="edge14" class="edge">
<title>za_ac_tut_business_SendEmail_getUniqueRandonNum_1_-&gt;unresolved_java_util_Random_nextInt</title>
<path fill="none" stroke="#000000" d="M645.9199,-882C678.2496,-882 711.6149,-882 742.1951,-882"/>
<polygon fill="#000000" stroke="#000000" points="742.4535,-885.5001 752.4535,-882 742.4534,-878.5001 742.4535,-885.5001"/>
</g>
<!-- unresolved_HashSet_Integer__add -->
<g id="node16" class="node">
<title>unresolved_HashSet_Integer__add</title>
<polygon fill="none" stroke="#ff0000" points="966.5201,-954 759.2921,-954 759.2921,-918 966.5201,-918 966.5201,-954"/>
<text text-anchor="middle" x="862.9061" y="-931.8" font-family="Times,serif" font-size="14.00" fill="#000000">unresolved:HashSet&lt;Integer&gt;.add</text>
</g>
<!-- za_ac_tut_business_SendEmail_getUniqueRandonNum_1_&#45;&gt;unresolved_HashSet_Integer__add -->
<g id="edge15" class="edge">
<title>za_ac_tut_business_SendEmail_getUniqueRandonNum_1_-&gt;unresolved_HashSet_Integer__add</title>
<path fill="none" stroke="#000000" d="M624.9595,-900.0162C646.8982,-902.9252 669.2747,-905.9767 690.4232,-909 709.3308,-911.703 729.3811,-914.7112 748.8659,-917.7107"/>
<polygon fill="#000000" stroke="#000000" points="748.5772,-921.2076 758.9946,-919.2768 749.6469,-914.2898 748.5772,-921.2076"/>
</g>
<!-- za_ac_tut_business_SendEmail_getRandom_1_&#45;&gt;unresolved_java_util_Random_nextInt -->
<g id="edge16" class="edge">
<title>za_ac_tut_business_SendEmail_getRandom_1_-&gt;unresolved_java_util_Random_nextInt</title>
<path fill="none" stroke="#000000" d="M613.3199,-714.924C641.1944,-719.5605 668.7161,-729.1252 690.4232,-747 729.4816,-779.1628 688.4572,-821.5548 726.4232,-855 731.5377,-859.5055 737.183,-863.3458 743.18,-866.6128"/>
<polygon fill="#000000" stroke="#000000" points="741.6735,-869.772 752.197,-870.9998 744.736,-863.4775 741.6735,-869.772"/>
</g>
<!-- unresolved__unknown__format -->
<g id="node17" class="node">
<title>unresolved__unknown__format</title>
<polygon fill="none" stroke="#ff0000" points="957.9345,-846 767.8777,-846 767.8777,-810 957.9345,-810 957.9345,-846"/>
<text text-anchor="middle" x="862.9061" y="-823.8" font-family="Times,serif" font-size="14.00" fill="#000000">unresolved:&lt;unknown&gt;.format</text>
</g>
<!-- za_ac_tut_business_SendEmail_getRandom_1_&#45;&gt;unresolved__unknown__format -->
<g id="edge17" class="edge">
<title>za_ac_tut_business_SendEmail_getRandom_1_-&gt;unresolved__unknown__format</title>
<path fill="none" stroke="#000000" d="M613.3985,-719.9177C640.3505,-724.4717 667.4662,-732.7426 690.4232,-747 714.9266,-762.2178 702.44,-784.9749 726.4232,-801 735.9762,-807.3831 746.6911,-812.3263 757.8063,-816.1443"/>
<polygon fill="#000000" stroke="#000000" points="757.0695,-819.5808 767.6581,-819.2178 759.1543,-812.8984 757.0695,-819.5808"/>
</g>
<!-- za_ac_tut_entities_Account_Account_1_ -->
<g id="node18" class="node">
<title>za_ac_tut_entities_Account_Account_1_</title>
<polygon fill="none" stroke="#000000" points="975.156,-792 750.6562,-792 750.6562,-756 975.156,-756 975.156,-792"/>
<text text-anchor="middle" x="862.9061" y="-769.8" font-family="Times,serif" font-size="14.00" fill="#000000">za.ac.tut.entities.Account.Account[1]</text>
</g>
<!-- za_ac_tut_web_RegisterServlet_createUser_1_&#45;&gt;za_ac_tut_entities_Account_Account_1_ -->
<g id="edge18" class="edge">
<title>za_ac_tut_web_RegisterServlet_createUser_1_-&gt;za_ac_tut_entities_Account_Account_1_</title>
<path fill="none" stroke="#000000" d="M505.455,-522.1901C546.054,-554.0985 630.4418,-623.4047 690.4232,-693 709.2542,-714.8493 702.44,-730.9749 726.4232,-747 731.0675,-750.1032 735.9864,-752.8661 741.0925,-755.3249"/>
<polygon fill="#000000" stroke="#000000" points="739.9023,-758.6245 750.4665,-759.4299 742.7103,-752.2124 739.9023,-758.6245"/>
</g>
<!-- za_ac_tut_entities_Account_setAccountType_1_ -->
<g id="node19" class="node">
<title>za_ac_tut_entities_Account_setAccountType_1_</title>
<polygon fill="none" stroke="#000000" points="997.4729,-738 728.3393,-738 728.3393,-702 997.4729,-702 997.4729,-738"/>
<text text-anchor="middle" x="862.9061" y="-715.8" font-family="Times,serif" font-size="14.00" fill="#000000">za.ac.tut.entities.Account.setAccountType[1]</text>
</g>
<!-- za_ac_tut_web_RegisterServlet_createUser_1_&#45;&gt;za_ac_tut_entities_Account_setAccountType_1_ -->
<g id="edge19" class="edge">
<title>za_ac_tut_web_RegisterServlet_createUser_1_-&gt;za_ac_tut_entities_Account_setAccountType_1_</title>
<path fill="none" stroke="#000000" d="M499.1801,-522.2276C536.7346,-560.4665 629.9301,-649.1454 726.4232,-693 730.8624,-695.0175 735.4501,-696.8848 740.1354,-698.6129"/>
<polygon fill="#000000" stroke="#000000" points="739.2786,-702.0195 749.8733,-701.9682 741.559,-695.4014 739.2786,-702.0195"/>
</g>
<!-- za_ac_tut_entities_Account_setBalance_1_ -->
<g id="node20" class="node">
<title>za_ac_tut_entities_Account_setBalance_1_</title>
<polygon fill="none" stroke="#000000" points="981.8649,-684 743.9473,-684 743.9473,-648 981.8649,-648 981.8649,-684"/>
<text text-anchor="middle" x="862.9061" y="-661.8" font-family="Times,serif" font-size="14.00" fill="#000000">za.ac.tut.entities.Account.setBalance[1]</text>
</g>
<!-- za_ac_tut_web_RegisterServlet_createUser_1_&#45;&gt;za_ac_tut_entities_Account_setBalance_1_ -->
<g id="edge20" class="edge">
<title>za_ac_tut_web_RegisterServlet_createUser_1_-&gt;za_ac_tut_entities_Account_setBalance_1_</title>
<path fill="none" stroke="#000000" d="M508.0184,-522.0602C551.4328,-551.133 641.8952,-608.1637 726.4232,-639 732.4541,-641.2001 738.7039,-643.2344 745.0621,-645.1137"/>
<polygon fill="#000000" stroke="#000000" points="744.553,-648.606 755.1269,-647.9406 746.4459,-641.8668 744.553,-648.606"/>
</g>
<!-- za_ac_tut_entities_Account_setId_1_ -->
<g id="node21" class="node">
<title>za_ac_tut_entities_Account_setId_1_</title>
<polygon fill="none" stroke="#000000" points="964.9404,-630 760.8718,-630 760.8718,-594 964.9404,-594 964.9404,-630"/>
<text text-anchor="middle" x="862.9061" y="-607.8" font-family="Times,serif" font-size="14.00" fill="#000000">za.ac.tut.entities.Account.setId[1]</text>
</g>
<!-- za_ac_tut_web_RegisterServlet_createUser_1_&#45;&gt;za_ac_tut_entities_Account_setId_1_ -->
<g id="edge21" class="edge">
<title>za_ac_tut_web_RegisterServlet_createUser_1_-&gt;za_ac_tut_entities_Account_setId_1_</title>
<path fill="none" stroke="#000000" d="M530.47,-522.1046C579.4508,-539.8557 657.4248,-566.8265 726.4232,-585 735.4377,-587.3743 744.8362,-589.6464 754.298,-591.7931"/>
<polygon fill="#000000" stroke="#000000" points="753.6467,-595.2337 764.1676,-593.9839 755.1636,-588.4 753.6467,-595.2337"/>
</g>
<!-- za_ac_tut_entities_User_User_1_ -->
<g id="node22" class="node">
<title>za_ac_tut_entities_User_User_1_</title>
<polygon fill="none" stroke="#000000" points="954.1561,-576 771.6561,-576 771.6561,-540 954.1561,-540 954.1561,-576"/>
<text text-anchor="middle" x="862.9061" y="-553.8" font-family="Times,serif" font-size="14.00" fill="#000000">za.ac.tut.entities.User.User[1]</text>
</g>
<!-- za_ac_tut_web_RegisterServlet_createUser_1_&#45;&gt;za_ac_tut_entities_User_User_1_ -->
<g id="edge22" class="edge">
<title>za_ac_tut_web_RegisterServlet_createUser_1_-&gt;za_ac_tut_entities_User_User_1_</title>
<path fill="none" stroke="#000000" d="M608.9773,-522.0187C658.5844,-529.048 714.6599,-536.9938 761.4733,-543.6272"/>
<polygon fill="#000000" stroke="#000000" points="761.2301,-547.1276 771.6223,-545.0653 762.2123,-540.1968 761.2301,-547.1276"/>
</g>
<!-- za_ac_tut_entities_User_setConfirmPassword_1_ -->
<g id="node23" class="node">
<title>za_ac_tut_entities_User_setConfirmPassword_1_</title>
<polygon fill="none" stroke="#000000" points="999.3719,-522 726.4403,-522 726.4403,-486 999.3719,-486 999.3719,-522"/>
<text text-anchor="middle" x="862.9061" y="-499.8" font-family="Times,serif" font-size="14.00" fill="#000000">za.ac.tut.entities.User.setConfirmPassword[1]</text>
</g>
<!-- za_ac_tut_web_RegisterServlet_createUser_1_&#45;&gt;za_ac_tut_entities_User_setConfirmPassword_1_ -->
<g id="edge23" class="edge">
<title>za_ac_tut_web_RegisterServlet_createUser_1_-&gt;za_ac_tut_entities_User_setConfirmPassword_1_</title>
<path fill="none" stroke="#000000" d="M611.3664,-504C645.0478,-504 681.5716,-504 716.0742,-504"/>
<polygon fill="#000000" stroke="#000000" points="716.2279,-507.5001 726.2279,-504 716.2279,-500.5001 716.2279,-507.5001"/>
</g>
<!-- za_ac_tut_entities_User_setId_1_ -->
<g id="node24" class="node">
<title>za_ac_tut_entities_User_setId_1_</title>
<polygon fill="none" stroke="#000000" points="954.4405,-468 771.3717,-468 771.3717,-432 954.4405,-432 954.4405,-468"/>
<text text-anchor="middle" x="862.9061" y="-445.8" font-family="Times,serif" font-size="14.00" fill="#000000">za.ac.tut.entities.User.setId[1]</text>
</g>
<!-- za_ac_tut_web_RegisterServlet_createUser_1_&#45;&gt;za_ac_tut_entities_User_setId_1_ -->
<g id="edge24" class="edge">
<title>za_ac_tut_web_RegisterServlet_createUser_1_-&gt;za_ac_tut_entities_User_setId_1_</title>
<path fill="none" stroke="#000000" d="M611.2503,-487.7908C637.4731,-484.3541 664.8461,-480.6564 690.4232,-477 713.3954,-473.7159 738.0546,-469.9812 761.3368,-466.3592"/>
<polygon fill="#000000" stroke="#000000" points="761.8816,-469.8166 771.2217,-464.8154 760.8014,-462.9005 761.8816,-469.8166"/>
</g>
<!-- za_ac_tut_entities_User_setName_1_ -->
<g id="node25" class="node">
<title>za_ac_tut_entities_User_setName_1_</title>
<polygon fill="none" stroke="#000000" points="965.7059,-414 760.1063,-414 760.1063,-378 965.7059,-378 965.7059,-414"/>
<text text-anchor="middle" x="862.9061" y="-391.8" font-family="Times,serif" font-size="14.00" fill="#000000">za.ac.tut.entities.User.setName[1]</text>
</g>
<!-- za_ac_tut_web_RegisterServlet_createUser_1_&#45;&gt;za_ac_tut_entities_User_setName_1_ -->
<g id="edge25" class="edge">
<title>za_ac_tut_web_RegisterServlet_createUser_1_-&gt;za_ac_tut_entities_User_setName_1_</title>
<path fill="none" stroke="#000000" d="M611.4867,-504.3992C639.0657,-499.9161 666.9233,-491.5946 690.4232,-477 714.9266,-461.7822 702.44,-439.0251 726.4232,-423 733.9451,-417.974 742.1873,-413.8408 750.7781,-410.4466"/>
<polygon fill="#000000" stroke="#000000" points="751.9969,-413.7278 760.2193,-407.0463 749.6249,-407.1419 751.9969,-413.7278"/>
</g>
<!-- za_ac_tut_entities_User_setPhoneNum_1_ -->
<g id="node26" class="node">
<title>za_ac_tut_entities_User_setPhoneNum_1_</title>
<polygon fill="none" stroke="#000000" points="980.2737,-360 745.5385,-360 745.5385,-324 980.2737,-324 980.2737,-360"/>
<text text-anchor="middle" x="862.9061" y="-337.8" font-family="Times,serif" font-size="14.00" fill="#000000">za.ac.tut.entities.User.setPhoneNum[1]</text>
</g>
<!-- za_ac_tut_web_RegisterServlet_createUser_1_&#45;&gt;za_ac_tut_entities_User_setPhoneNum_1_ -->
<g id="edge26" class="edge">
<title>za_ac_tut_web_RegisterServlet_createUser_1_-&gt;za_ac_tut_entities_User_setPhoneNum_1_</title>
<path fill="none" stroke="#000000" d="M611.4189,-509.3845C639.9404,-504.87 668.2227,-495.2811 690.4232,-477 729.4816,-444.8372 688.4572,-402.4452 726.4232,-369 729.5454,-366.2495 732.8655,-363.747 736.3426,-361.4714"/>
<polygon fill="#000000" stroke="#000000" points="738.4008,-364.3234 745.2859,-356.2707 734.8818,-358.2721 738.4008,-364.3234"/>
</g>
<!-- za_ac_tut_entities_User_setSurname_1_ -->
<g id="node27" class="node">
<title>za_ac_tut_entities_User_setSurname_1_</title>
<polygon fill="none" stroke="#000000" points="973.5426,-306 752.2696,-306 752.2696,-270 973.5426,-270 973.5426,-306"/>
<text text-anchor="middle" x="862.9061" y="-283.8" font-family="Times,serif" font-size="14.00" fill="#000000">za.ac.tut.entities.User.setSurname[1]</text>
</g>
<!-- za_ac_tut_web_RegisterServlet_createUser_1_&#45;&gt;za_ac_tut_entities_User_setSurname_1_ -->
<g id="edge27" class="edge">
<title>za_ac_tut_web_RegisterServlet_createUser_1_-&gt;za_ac_tut_entities_User_setSurname_1_</title>
<path fill="none" stroke="#000000" d="M611.4597,-511.2082C640.3978,-506.7359 668.857,-496.7085 690.4232,-477 744.869,-427.2441 673.6639,-366.5408 726.4232,-315 731.4149,-310.1236 737.0182,-306.0039 743.0314,-302.5324"/>
<polygon fill="#000000" stroke="#000000" points="744.7962,-305.5612 752.1114,-297.8972 741.6134,-299.3266 744.7962,-305.5612"/>
</g>
<!-- za_ac_tut_entities_User_setPassword_1_ -->
<g id="node28" class="node">
<title>za_ac_tut_entities_User_setPassword_1_</title>
<polygon fill="none" stroke="#000000" points="975.4334,-252 750.3788,-252 750.3788,-216 975.4334,-216 975.4334,-252"/>
<text text-anchor="middle" x="862.9061" y="-229.8" font-family="Times,serif" font-size="14.00" fill="#000000">za.ac.tut.entities.User.setPassword[1]</text>
</g>
<!-- za_ac_tut_web_RegisterServlet_createUser_1_&#45;&gt;za_ac_tut_entities_User_setPassword_1_ -->
<g id="edge28" class="edge">
<title>za_ac_tut_web_RegisterServlet_createUser_1_-&gt;za_ac_tut_entities_User_setPassword_1_</title>
<path fill="none" stroke="#000000" d="M611.405,-512.1414C640.603,-507.7107 669.1949,-497.4686 690.4232,-477 760.484,-409.4465 658.65,-330.8484 726.4232,-261 730.8937,-256.3926 735.907,-252.4509 741.3023,-249.0863"/>
<polygon fill="#000000" stroke="#000000" points="742.9976,-252.1484 750.0719,-244.2614 739.6232,-246.0154 742.9976,-252.1484"/>
</g>
<!-- za_ac_tut_entities_User_setCode_1_ -->
<g id="node29" class="node">
<title>za_ac_tut_entities_User_setCode_1_</title>
<polygon fill="none" stroke="#000000" points="963.8309,-198 761.9813,-198 761.9813,-162 963.8309,-162 963.8309,-198"/>
<text text-anchor="middle" x="862.9061" y="-175.8" font-family="Times,serif" font-size="14.00" fill="#000000">za.ac.tut.entities.User.setCode[1]</text>
</g>
<!-- za_ac_tut_web_RegisterServlet_createUser_1_&#45;&gt;za_ac_tut_entities_User_setCode_1_ -->
<g id="edge29" class="edge">
<title>za_ac_tut_web_RegisterServlet_createUser_1_-&gt;za_ac_tut_entities_User_setCode_1_</title>
<path fill="none" stroke="#000000" d="M611.3357,-512.7058C640.7108,-508.3087 669.402,-497.9407 690.4232,-477 776.1911,-391.5607 643.5471,-295.2471 726.4232,-207 733.8163,-199.1278 742.7902,-193.1817 752.5671,-188.7292"/>
<polygon fill="#000000" stroke="#000000" points="754.1689,-191.8586 762.1615,-184.9038 751.5763,-185.3563 754.1689,-191.8586"/>
</g>
<!-- za_ac_tut_entities_User_setCreationDate_1_ -->
<g id="node30" class="node">
<title>za_ac_tut_entities_User_setCreationDate_1_</title>
<polygon fill="none" stroke="#000000" points="985.9138,-144 739.8984,-144 739.8984,-108 985.9138,-108 985.9138,-144"/>
<text text-anchor="middle" x="862.9061" y="-121.8" font-family="Times,serif" font-size="14.00" fill="#000000">za.ac.tut.entities.User.setCreationDate[1]</text>
</g>
<!-- za_ac_tut_web_RegisterServlet_createUser_1_&#45;&gt;za_ac_tut_entities_User_setCreationDate_1_ -->
<g id="edge30" class="edge">
<title>za_ac_tut_web_RegisterServlet_createUser_1_-&gt;za_ac_tut_entities_User_setCreationDate_1_</title>
<path fill="none" stroke="#000000" d="M611.3868,-513.0662C640.8493,-508.6854 669.5685,-498.2347 690.4232,-477 791.9441,-373.6293 628.3998,-259.693 726.4232,-153 728.0497,-151.2296 729.756,-149.5561 731.5335,-147.9746"/>
<polygon fill="#000000" stroke="#000000" points="733.9875,-150.5013 739.7562,-141.6146 729.7048,-144.9643 733.9875,-150.5013"/>
</g>
<!-- za_ac_tut_entities_User_setAccount_1_ -->
<g id="node31" class="node">
<title>za_ac_tut_entities_User_setAccount_1_</title>
<polygon fill="none" stroke="#000000" points="972.7059,-90 753.1063,-90 753.1063,-54 972.7059,-54 972.7059,-90"/>
<text text-anchor="middle" x="862.9061" y="-67.8" font-family="Times,serif" font-size="14.00" fill="#000000">za.ac.tut.entities.User.setAccount[1]</text>
</g>
<!-- za_ac_tut_web_RegisterServlet_createUser_1_&#45;&gt;za_ac_tut_entities_User_setAccount_1_ -->
<g id="edge31" class="edge">
<title>za_ac_tut_web_RegisterServlet_createUser_1_-&gt;za_ac_tut_entities_User_setAccount_1_</title>
<path fill="none" stroke="#000000" d="M611.349,-513.3338C640.9016,-508.9721 669.6724,-498.4634 690.4232,-477 749.0733,-416.3356 669.8251,-161.5832 726.4232,-99 731.5469,-93.3345 737.4875,-88.6567 743.9651,-84.8091"/>
<polygon fill="#000000" stroke="#000000" points="745.8435,-87.7774 753.1046,-80.062 742.617,-81.5654 745.8435,-87.7774"/>
</g>
<!-- unresolved_create -->
<g id="node32" class="node">
<title>unresolved_create</title>
<polygon fill="none" stroke="#ff0000" points="920.1316,-36 805.6806,-36 805.6806,0 920.1316,0 920.1316,-36"/>
<text text-anchor="middle" x="862.9061" y="-13.8" font-family="Times,serif" font-size="14.00" fill="#000000">unresolved:create</text>
</g>
<!-- za_ac_tut_business_UserFacade_addUser_1_&#45;&gt;unresolved_create -->
<g id="edge32" class="edge">
<title>za_ac_tut_business_UserFacade_addUser_1_-&gt;unresolved_create</title>
<path fill="none" stroke="#000000" d="M606.4629,-459.999C637.7099,-456.0958 668.5302,-445.6449 690.4232,-423 749.0733,-362.3356 669.8251,-107.5832 726.4232,-45 743.653,-25.9481 770.1211,-18.0658 795.1784,-15.3608"/>
<polygon fill="#000000" stroke="#000000" points="795.7461,-18.8262 805.4272,-14.5219 795.175,-11.8495 795.7461,-18.8262"/>
</g>
</g>
</svg>